<svg xmlns="http://www.w3.org/2000/svg" width="930" height="456" viewBox="0 0 930 456">
    <defs>
        <linearGradient id="otrn7pp6jb" x1="1617.97%" x2="-2414.952%" y1="-824.558%" y2="1424.762%">
            <stop offset="0%" stop-color="#FFEC00"/>
            <stop offset="100%" stop-color="#E77A00"/>
        </linearGradient>
        <linearGradient id="xhbkznnq7c" x1="1638.156%" x2="-2105.258%" y1="-903.968%" y2="1345.295%">
            <stop offset="0%" stop-color="#FFEC00"/>
            <stop offset="100%" stop-color="#E77A00"/>
        </linearGradient>
        <linearGradient id="sqiwic4edd" x1="1599.043%" x2="-2185.495%" y1="-868.802%" y2="1375.779%">
            <stop offset="0%" stop-color="#FFEC00"/>
            <stop offset="100%" stop-color="#E77A00"/>
        </linearGradient>
        <linearGradient id="ustrljl1be" x1="1680.387%" x2="-2361.333%" y1="-859.244%" y2="1394.418%">
            <stop offset="0%" stop-color="#FFEC00"/>
            <stop offset="100%" stop-color="#E77A00"/>
        </linearGradient>
        <linearGradient id="rz2d7xoyjf" x1="1536.707%" x2="-2498.95%" y1="-785.158%" y2="1481.673%">
            <stop offset="0%" stop-color="#FFEC00"/>
            <stop offset="100%" stop-color="#E77A00"/>
        </linearGradient>
        <linearGradient id="zwik30fs4g" x1="1603.449%" x2="-2453.633%" y1="-820.205%" y2="1451.964%">
            <stop offset="0%" stop-color="#FFEC00"/>
            <stop offset="100%" stop-color="#E77A00"/>
        </linearGradient>
        <linearGradient id="23e4uhd1oh" x1="1851.343%" x2="-985.283%" y1="-1526.423%" y2="955.777%">
            <stop offset="0%" stop-color="#FFEC00"/>
            <stop offset="100%" stop-color="#E77A00"/>
        </linearGradient>
        <linearGradient id="077ax03qji" x1="1966.978%" x2="-1148.735%" y1="-1484.146%" y2="1009.483%">
            <stop offset="0%" stop-color="#FFEC00"/>
            <stop offset="100%" stop-color="#E77A00"/>
        </linearGradient>
        <linearGradient id="rzb9z4l83j" x1="2128.432%" x2="-1034.588%" y1="-1607.014%" y2="914.729%">
            <stop offset="0%" stop-color="#FFEC00"/>
            <stop offset="100%" stop-color="#E77A00"/>
        </linearGradient>
        <linearGradient id="v22cq93rck" x1="2052.601%" x2="-1304.851%" y1="-1387.408%" y2="1022.937%">
            <stop offset="0%" stop-color="#FFEC00"/>
            <stop offset="100%" stop-color="#E77A00"/>
        </linearGradient>
        <linearGradient id="qac57p3nvl" x1="2012.944%" x2="-1121.957%" y1="-1524.978%" y2="990.267%">
            <stop offset="0%" stop-color="#FFEC00"/>
            <stop offset="100%" stop-color="#E77A00"/>
        </linearGradient>
        <linearGradient id="qtt0ik222m" x1="1918.092%" x2="-1144.115%" y1="-1436.805%" y2="1000.626%">
            <stop offset="0%" stop-color="#FFEC00"/>
            <stop offset="100%" stop-color="#E77A00"/>
        </linearGradient>
        <linearGradient id="g7qr60s3fn" x1="1805.738%" x2="-1231.823%" y1="-1348.912%" y2="1072.11%">
            <stop offset="0%" stop-color="#FFEC00"/>
            <stop offset="100%" stop-color="#E77A00"/>
        </linearGradient>
        <linearGradient id="pfpsmgbrho" x1="1884.985%" x2="-1219.214%" y1="-1396.905%" y2="1051.339%">
            <stop offset="0%" stop-color="#FFEC00"/>
            <stop offset="100%" stop-color="#E77A00"/>
        </linearGradient>
        <linearGradient id="ivw29lxrdp" x1="2016.163%" x2="-1140.005%" y1="-1480.463%" y2="976.28%">
            <stop offset="0%" stop-color="#FFEC00"/>
            <stop offset="100%" stop-color="#E77A00"/>
        </linearGradient>
        <linearGradient id="7rsx78qgtq" x1="1971.994%" x2="-1212.219%" y1="-1441.712%" y2="1030.08%">
            <stop offset="0%" stop-color="#FFEC00"/>
            <stop offset="100%" stop-color="#E77A00"/>
        </linearGradient>
        <linearGradient id="igtp8dww0r" x1="2275.859%" x2="-823.04%" y1="-1738.484%" y2="751.693%">
            <stop offset="0%" stop-color="#FFEC00"/>
            <stop offset="100%" stop-color="#E77A00"/>
        </linearGradient>
        <linearGradient id="agw3iff3ls" x1="2383.996%" x2="-729.977%" y1="-1820.694%" y2="675.08%">
            <stop offset="0%" stop-color="#FFEC00"/>
            <stop offset="100%" stop-color="#E77A00"/>
        </linearGradient>
        <linearGradient id="5ymaoxtubt" x1="2403.493%" x2="-785.869%" y1="-1774.616%" y2="698.392%">
            <stop offset="0%" stop-color="#FFEC00"/>
            <stop offset="100%" stop-color="#E77A00"/>
        </linearGradient>
        <linearGradient id="6qq9o0sqtu" x1="2288.542%" x2="-881.293%" y1="-1690.516%" y2="773.659%">
            <stop offset="0%" stop-color="#FFEC00"/>
            <stop offset="100%" stop-color="#E77A00"/>
        </linearGradient>
        <linearGradient id="ijoav4jsiv" x1="2219.131%" x2="-934.281%" y1="-1698.085%" y2="843.516%">
            <stop offset="0%" stop-color="#FFEC00"/>
            <stop offset="100%" stop-color="#E77A00"/>
        </linearGradient>
        <linearGradient id="sqthas7hmw" x1="2277.255%" x2="-863.905%" y1="-1736.763%" y2="783.199%">
            <stop offset="0%" stop-color="#FFEC00"/>
            <stop offset="100%" stop-color="#E77A00"/>
        </linearGradient>
        <linearGradient id="1sbe9kkvzx" x1="2393.2%" x2="-773.766%" y1="-1820.552%" y2="707.52%">
            <stop offset="0%" stop-color="#FFEC00"/>
            <stop offset="100%" stop-color="#E77A00"/>
        </linearGradient>
        <linearGradient id="vlnf5t9pby" x1="2435.923%" x2="-701.59%" y1="-1862.3%" y2="652.777%">
            <stop offset="0%" stop-color="#FFEC00"/>
            <stop offset="100%" stop-color="#E77A00"/>
        </linearGradient>
        <linearGradient id="a46q9yogjz" x1="1720.324%" x2="-2173.861%" y1="-917.568%" y2="1337.94%">
            <stop offset="0%" stop-color="#FFEC00"/>
            <stop offset="100%" stop-color="#E77A00"/>
        </linearGradient>
        <linearGradient id="yq0x9fa2yA" x1="1915.472%" x2="-1392.052%" y1="-1301.606%" y2="1095.376%">
            <stop offset="0%" stop-color="#FFEC00"/>
            <stop offset="100%" stop-color="#E77A00"/>
        </linearGradient>
        <linearGradient id="lun7hs9rvB" x1="1948.277%" x2="-1845.061%" y1="-1096.392%" y2="1194.848%">
            <stop offset="0%" stop-color="#FFEC00"/>
            <stop offset="100%" stop-color="#E77A00"/>
        </linearGradient>
        <linearGradient id="ukvlbpplsC" x1="1893.566%" x2="-1665.207%" y1="-1143.484%" y2="1160.784%">
            <stop offset="0%" stop-color="#FFEC00"/>
            <stop offset="100%" stop-color="#E77A00"/>
        </linearGradient>
        <linearGradient id="gerw70si7D" x1="1750.605%" x2="-1761.129%" y1="-1063.079%" y2="1235.988%">
            <stop offset="0%" stop-color="#FFEC00"/>
            <stop offset="100%" stop-color="#E77A00"/>
        </linearGradient>
        <linearGradient id="h884rpws2E" x1="1663.79%" x2="-1796.329%" y1="-1013.589%" y2="1267.224%">
            <stop offset="0%" stop-color="#FFEC00"/>
            <stop offset="100%" stop-color="#E77A00"/>
        </linearGradient>
        <linearGradient id="m40anuvlyF" x1="1692.495%" x2="-1973.983%" y1="-963.705%" y2="1299.498%">
            <stop offset="0%" stop-color="#FFEC00"/>
            <stop offset="100%" stop-color="#E77A00"/>
        </linearGradient>
        <linearGradient id="yl215cnzpG" x1="1759.178%" x2="-2089.964%" y1="-952.459%" y2="1305.156%">
            <stop offset="0%" stop-color="#FFEC00"/>
            <stop offset="100%" stop-color="#E77A00"/>
        </linearGradient>
        <linearGradient id="3fywhx5goH" x1="1723.969%" x2="-1888.444%" y1="-999.807%" y2="1265.906%">
            <stop offset="0%" stop-color="#FFEC00"/>
            <stop offset="100%" stop-color="#E77A00"/>
        </linearGradient>
        <linearGradient id="uzls5f1mlI" x1="1847.022%" x2="-1879.561%" y1="-1048.56%" y2="1229.933%">
            <stop offset="0%" stop-color="#FFEC00"/>
            <stop offset="100%" stop-color="#E77A00"/>
        </linearGradient>
        <linearGradient id="6zuiiw16kJ" x1="1877.965%" x2="-1345.343%" y1="-1294.612%" y2="1076.913%">
            <stop offset="0%" stop-color="#FFEC00"/>
            <stop offset="100%" stop-color="#E77A00"/>
        </linearGradient>
        <linearGradient id="211sk1kgaK" x1="1861.521%" x2="-1435.901%" y1="-1254.361%" y2="1120.092%">
            <stop offset="0%" stop-color="#FFEC00"/>
            <stop offset="100%" stop-color="#E77A00"/>
        </linearGradient>
        <linearGradient id="dq241x0m8L" x1="1931.239%" x2="-1300.359%" y1="-1339.415%" y2="1047.759%">
            <stop offset="0%" stop-color="#FFEC00"/>
            <stop offset="100%" stop-color="#E77A00"/>
        </linearGradient>
        <linearGradient id="7k6s4w7owM" x1="1874.543%" x2="-1763.449%" y1="-1111.274%" y2="1204.886%">
            <stop offset="0%" stop-color="#FFEC00"/>
            <stop offset="100%" stop-color="#E77A00"/>
        </linearGradient>
        <linearGradient id="yg65493hoN" x1="1744.859%" x2="-1428.498%" y1="-1209.104%" y2="1148.999%">
            <stop offset="0%" stop-color="#FFEC00"/>
            <stop offset="100%" stop-color="#E77A00"/>
        </linearGradient>
        <linearGradient id="amcal5tfjO" x1="1952.977%" x2="-1498.393%" y1="-1239.619%" y2="1099.633%">
            <stop offset="0%" stop-color="#FFEC00"/>
            <stop offset="100%" stop-color="#E77A00"/>
        </linearGradient>
        <linearGradient id="pmay5ye51P" x1="1829.596%" x2="-1496.642%" y1="-1192.674%" y2="1130.313%">
            <stop offset="0%" stop-color="#FFEC00"/>
            <stop offset="100%" stop-color="#E77A00"/>
        </linearGradient>
        <linearGradient id="u9mekchj9Q" x1="1815.537%" x2="-1592.151%" y1="-1160.106%" y2="1175.896%">
            <stop offset="0%" stop-color="#FFEC00"/>
            <stop offset="100%" stop-color="#E77A00"/>
        </linearGradient>
        <linearGradient id="igvfn2fh9R" x1="2152.151%" x2="-1167.742%" y1="-1457.374%" y2="923.683%">
            <stop offset="0%" stop-color="#FFEC00"/>
            <stop offset="100%" stop-color="#E77A00"/>
        </linearGradient>
        <linearGradient id="r68yg84tqS" x1="2059.458%" x2="-1474.547%" y1="-1256.446%" y2="1041.531%">
            <stop offset="0%" stop-color="#FFEC00"/>
            <stop offset="100%" stop-color="#E77A00"/>
        </linearGradient>
        <linearGradient id="k2ib9rvvqT" x1="1968.85%" x2="-1514.473%" y1="-1207.801%" y2="1075.761%">
            <stop offset="0%" stop-color="#FFEC00"/>
            <stop offset="100%" stop-color="#E77A00"/>
        </linearGradient>
        <linearGradient id="n0kqjcqnkU" x1="2105.764%" x2="-1741.447%" y1="-1177.346%" y2="1120.177%">
            <stop offset="0%" stop-color="#FFEC00"/>
            <stop offset="100%" stop-color="#E77A00"/>
        </linearGradient>
        <linearGradient id="bi9j8n9llV" x1="1813.895%" x2="-1601.642%" y1="-1125.025%" y2="1150.651%">
            <stop offset="0%" stop-color="#FFEC00"/>
            <stop offset="100%" stop-color="#E77A00"/>
        </linearGradient>
        <linearGradient id="zykdpqg5mW" x1="2198.613%" x2="-1469.694%" y1="-1306.213%" y2="1009.548%">
            <stop offset="0%" stop-color="#FFEC00"/>
            <stop offset="100%" stop-color="#E77A00"/>
        </linearGradient>
        <linearGradient id="81vgu2ip4X" x1="1985.754%" x2="-1419.971%" y1="-1277.145%" y2="1058.075%">
            <stop offset="0%" stop-color="#FFEC00"/>
            <stop offset="100%" stop-color="#E77A00"/>
        </linearGradient>
        <linearGradient id="lnemjyo9nY" x1="2118.347%" x2="-1316.422%" y1="-1358.062%" y2="980.419%">
            <stop offset="0%" stop-color="#FFEC00"/>
            <stop offset="100%" stop-color="#E77A00"/>
        </linearGradient>
        <linearGradient id="x5uaxizcdZ" x1="2043.211%" x2="-1569.599%" y1="-1225.762%" y2="1087.158%">
            <stop offset="0%" stop-color="#FFEC00"/>
            <stop offset="100%" stop-color="#E77A00"/>
        </linearGradient>
        <linearGradient id="7a0cfs3ymaa" x1="2016.641%" x2="-1676.128%" y1="-1157.724%" y2="1110.283%">
            <stop offset="0%" stop-color="#FFEC00"/>
            <stop offset="100%" stop-color="#E77A00"/>
        </linearGradient>
        <linearGradient id="sdhbjiay3ab" x1="1800.602%" x2="-2243.786%" y1="-938.158%" y2="1344.557%">
            <stop offset="0%" stop-color="#FFEC00"/>
            <stop offset="100%" stop-color="#E77A00"/>
        </linearGradient>
        <linearGradient id="cxk21lss3ac" x1="1964.215%" x2="-2072.691%" y1="-1015.941%" y2="1232.012%">
            <stop offset="0%" stop-color="#FFEC00"/>
            <stop offset="100%" stop-color="#E77A00"/>
        </linearGradient>
        <linearGradient id="y50qrq3j9ad" x1="1879.006%" x2="-2151.304%" y1="-977.427%" y2="1286.441%">
            <stop offset="0%" stop-color="#FFEC00"/>
            <stop offset="100%" stop-color="#E77A00"/>
        </linearGradient>
        <linearGradient id="34qb4qaxbae" x1="1778.231%" x2="-1986.907%" y1="-984.985%" y2="1269.984%">
            <stop offset="0%" stop-color="#FFEC00"/>
            <stop offset="100%" stop-color="#E77A00"/>
        </linearGradient>
        <linearGradient id="jkfnrkybhaf" x1="1737.313%" x2="-2299.791%" y1="-898.533%" y2="1370.79%">
            <stop offset="0%" stop-color="#FFEC00"/>
            <stop offset="100%" stop-color="#E77A00"/>
        </linearGradient>
        <linearGradient id="rhsed7bj5ag" x1="1929.046%" x2="-1873.092%" y1="-1060.701%" y2="1187.001%">
            <stop offset="0%" stop-color="#FFEC00"/>
            <stop offset="100%" stop-color="#E77A00"/>
        </linearGradient>
        <linearGradient id="lgnb5vusxah" x1="1884.922%" x2="-1687.509%" y1="-1109.435%" y2="1147.97%">
            <stop offset="0%" stop-color="#FFEC00"/>
            <stop offset="100%" stop-color="#E77A00"/>
        </linearGradient>
        <linearGradient id="mckjf21qjai" x1="1901.901%" x2="-1966.585%" y1="-1027.851%" y2="1223.88%">
            <stop offset="0%" stop-color="#FFEC00"/>
            <stop offset="100%" stop-color="#E77A00"/>
        </linearGradient>
        <linearGradient id="cqcf8yavlaj" x1="1893.495%" x2="-1260.393%" y1="-1325.698%" y2="1028.138%">
            <stop offset="0%" stop-color="#FFEC00"/>
            <stop offset="100%" stop-color="#E77A00"/>
        </linearGradient>
        <linearGradient id="k1637ltg7ak" x1="1865.837%" x2="-1781.617%" y1="-1076.072%" y2="1186.058%">
            <stop offset="0%" stop-color="#FFEC00"/>
            <stop offset="100%" stop-color="#E77A00"/>
        </linearGradient>
        <linearGradient id="u2618i02val" x1="2075.7%" x2="-1057.661%" y1="-1566.212%" y2="933.834%">
            <stop offset="0%" stop-color="#FFEC00"/>
            <stop offset="100%" stop-color="#E77A00"/>
        </linearGradient>
        <linearGradient id="7tjem93tpam" x1="2125.822%" x2="-1044.869%" y1="-1564.233%" y2="901.793%">
            <stop offset="0%" stop-color="#FFEC00"/>
            <stop offset="100%" stop-color="#E77A00"/>
        </linearGradient>
        <linearGradient id="ivn0bqtokan" x1="2252.232%" x2="-954.308%" y1="-1652.584%" y2="826.781%">
            <stop offset="0%" stop-color="#FFEC00"/>
            <stop offset="100%" stop-color="#E77A00"/>
        </linearGradient>
        <linearGradient id="bavc3zep7ao" x1="2166.593%" x2="-957.303%" y1="-1651.001%" y2="859.507%">
            <stop offset="0%" stop-color="#FFEC00"/>
            <stop offset="100%" stop-color="#E77A00"/>
        </linearGradient>
        <linearGradient id="dmt0d88frap" x1="2121.395%" x2="-986.536%" y1="-1610.418%" y2="881.024%">
            <stop offset="0%" stop-color="#FFEC00"/>
            <stop offset="100%" stop-color="#E77A00"/>
        </linearGradient>
        <linearGradient id="4u89w392vaq" x1="2340.815%" x2="-799.402%" y1="-1778.376%" y2="728.173%">
            <stop offset="0%" stop-color="#FFEC00"/>
            <stop offset="100%" stop-color="#E77A00"/>
        </linearGradient>
        <linearGradient id="35mmrdq8iar" x1="2231.061%" x2="-892.271%" y1="-1696.349%" y2="804.632%">
            <stop offset="0%" stop-color="#FFEC00"/>
            <stop offset="100%" stop-color="#E77A00"/>
        </linearGradient>
        <linearGradient id="odq74as8pas" x1="2157.226%" x2="-966.976%" y1="-1604.553%" y2="848.922%">
            <stop offset="0%" stop-color="#FFEC00"/>
            <stop offset="100%" stop-color="#E77A00"/>
        </linearGradient>
        <linearGradient id="n9357uk18at" x1="2075.417%" x2="-1219.721%" y1="-1419.972%" y2="971.898%">
            <stop offset="0%" stop-color="#FFEC00"/>
            <stop offset="100%" stop-color="#E77A00"/>
        </linearGradient>
        <linearGradient id="7yj02aqxwau" x1="2212.722%" x2="-1126.267%" y1="-1506.912%" y2="897.471%">
            <stop offset="0%" stop-color="#FFEC00"/>
            <stop offset="100%" stop-color="#E77A00"/>
        </linearGradient>
        <linearGradient id="uqhog0wyuav" x1="2307.029%" x2="-804.205%" y1="-1727.586%" y2="722.863%">
            <stop offset="0%" stop-color="#FFEC00"/>
            <stop offset="100%" stop-color="#E77A00"/>
        </linearGradient>
        <linearGradient id="wjqdyjqpzaw" x1="2017.572%" x2="-1262.136%" y1="-1372.46%" y2="998.777%">
            <stop offset="0%" stop-color="#FFEC00"/>
            <stop offset="100%" stop-color="#E77A00"/>
        </linearGradient>
        <linearGradient id="beoxt13c6ax" x1="2069.943%" x2="-983.958%" y1="-1556.751%" y2="872.702%">
            <stop offset="0%" stop-color="#FFEC00"/>
            <stop offset="100%" stop-color="#E77A00"/>
        </linearGradient>
        <linearGradient id="bkexv3mo3ay" x1="2037.358%" x2="-1057.649%" y1="-1518.127%" y2="924.414%">
            <stop offset="0%" stop-color="#FFEC00"/>
            <stop offset="100%" stop-color="#E77A00"/>
        </linearGradient>
        <linearGradient id="yev32pzohaz" x1="2190.773%" x2="-1213.993%" y1="-1469.424%" y2="947.644%">
            <stop offset="0%" stop-color="#FFEC00"/>
            <stop offset="100%" stop-color="#E77A00"/>
        </linearGradient>
        <linearGradient id="4deru3zzlaA" x1="2029.364%" x2="-1173.347%" y1="-1407.962%" y2="951.38%">
            <stop offset="0%" stop-color="#FFEC00"/>
            <stop offset="100%" stop-color="#E77A00"/>
        </linearGradient>
        <linearGradient id="3ozks52qwaB" x1="1817.546%" x2="-2210.248%" y1="-938.242%" y2="1313.67%">
            <stop offset="0%" stop-color="#FFEC00"/>
            <stop offset="100%" stop-color="#E77A00"/>
        </linearGradient>
        <linearGradient id="csn2lu76iaC" x1="1852.483%" x2="-1234.276%" y1="-1402.031%" y2="1085.07%">
            <stop offset="0%" stop-color="#FFEC00"/>
            <stop offset="100%" stop-color="#E77A00"/>
        </linearGradient>
        <linearGradient id="a3vpi0t1kaD" x1="1959.825%" x2="-1193.586%" y1="-1486.62%" y2="1050.652%">
            <stop offset="0%" stop-color="#FFEC00"/>
            <stop offset="100%" stop-color="#E77A00"/>
        </linearGradient>
        <linearGradient id="337fre0qraE" x1="1919.471%" x2="-1221.623%" y1="-1441.451%" y2="1064.661%">
            <stop offset="0%" stop-color="#FFEC00"/>
            <stop offset="100%" stop-color="#E77A00"/>
        </linearGradient>
        <linearGradient id="phsyrfadjaF" x1="1992.748%" x2="-1164.841%" y1="-1527.392%" y2="1036.611%">
            <stop offset="0%" stop-color="#FFEC00"/>
            <stop offset="100%" stop-color="#E77A00"/>
        </linearGradient>
        <linearGradient id="px1gvdqn4aG" x1="1851.806%" x2="-1298.438%" y1="-1357.41%" y2="1103.821%">
            <stop offset="0%" stop-color="#FFEC00"/>
            <stop offset="100%" stop-color="#E77A00"/>
        </linearGradient>
        <linearGradient id="wfdrs39duaH" x1="1894.948%" x2="-1486.059%" y1="-1266.294%" y2="1146.434%">
            <stop offset="0%" stop-color="#FFEC00"/>
            <stop offset="100%" stop-color="#E77A00"/>
        </linearGradient>
        <linearGradient id="ehppulituaI" x1="2056.706%" x2="-1096.705%" y1="-1568.728%" y2="975.174%">
            <stop offset="0%" stop-color="#FFEC00"/>
            <stop offset="100%" stop-color="#E77A00"/>
        </linearGradient>
        <linearGradient id="tayj4lp4gaJ" x1="1726.271%" x2="-1518.802%" y1="-1169.801%" y2="1192.27%">
            <stop offset="0%" stop-color="#FFEC00"/>
            <stop offset="100%" stop-color="#E77A00"/>
        </linearGradient>
        <linearGradient id="vrf5u78rzaK" x1="1778.555%" x2="-1312.758%" y1="-1306.089%" y2="1119.856%">
            <stop offset="0%" stop-color="#FFEC00"/>
            <stop offset="100%" stop-color="#E77A00"/>
        </linearGradient>
        <linearGradient id="y6t527atlaL" x1="1781.298%" x2="-1476.25%" y1="-1220.445%" y2="1170.813%">
            <stop offset="0%" stop-color="#FFEC00"/>
            <stop offset="100%" stop-color="#E77A00"/>
        </linearGradient>
        <linearGradient id="ydly11zv4aM" x1="2771.365%" x2="-854.706%" y1="-2085.965%" y2="760.331%">
            <stop offset="0%" stop-color="#FFEC00"/>
            <stop offset="100%" stop-color="#E77A00"/>
        </linearGradient>
        <linearGradient id="pjdpmhxjmaN" x1="2326.367%" x2="-839.608%" y1="-1783.93%" y2="766.55%">
            <stop offset="0%" stop-color="#FFEC00"/>
            <stop offset="100%" stop-color="#E77A00"/>
        </linearGradient>
        <linearGradient id="3ha9swlciaO" x1="9587.363%" x2="-3264.866%" y1="-9055.462%" y2="3214.706%">
            <stop offset="0%" stop-color="#FFEC00"/>
            <stop offset="100%" stop-color="#E77A00"/>
        </linearGradient>
        <linearGradient id="z4ms0km58aP" x1="36581%" x2="-19469%" y1="-18983.5%" y2="10219.5%">
            <stop offset="0%" stop-color="#FFEC00"/>
            <stop offset="100%" stop-color="#E77A00"/>
        </linearGradient>
        <linearGradient id="lzxxpavdkaQ" x1="2480.068%" x2="-673.344%" y1="-1910.366%" y2="633.449%">
            <stop offset="0%" stop-color="#FFEC00"/>
            <stop offset="100%" stop-color="#E77A00"/>
        </linearGradient>
        <linearGradient id="bcygfc1vcaR" x1="2848.043%" x2="-1161.373%" y1="-1940.137%" y2="911.719%">
            <stop offset="0%" stop-color="#FFEC00"/>
            <stop offset="100%" stop-color="#E77A00"/>
        </linearGradient>
        <linearGradient id="njx5wxkzfaS" x1="4075.222%" x2="-2152.556%" y1="-3049.754%" y2="1745.484%">
            <stop offset="0%" stop-color="#FFEC00"/>
            <stop offset="100%" stop-color="#E77A00"/>
        </linearGradient>
        <linearGradient id="g2qpv9k06aT" x1="2158.49%" x2="-1003.286%" y1="-1649.476%" y2="898.778%">
            <stop offset="0%" stop-color="#FFEC00"/>
            <stop offset="100%" stop-color="#E77A00"/>
        </linearGradient>
        <linearGradient id="y1z12iuu2aU" x1="1723.453%" x2="-1853.33%" y1="-1027.123%" y2="1275.09%">
            <stop offset="0%" stop-color="#FFEC00"/>
            <stop offset="100%" stop-color="#E77A00"/>
        </linearGradient>
        <linearGradient id="7v07f5jxaaV" x1="1794.69%" x2="-1687.88%" y1="-1127.666%" y2="1223.073%">
            <stop offset="0%" stop-color="#FFEC00"/>
            <stop offset="100%" stop-color="#E77A00"/>
        </linearGradient>
        <linearGradient id="xhr3bevntaW" x1="1397.152%" x2="-2643.818%" y1="-708.108%" y2="1565.757%">
            <stop offset="0%" stop-color="#FFEC00"/>
            <stop offset="100%" stop-color="#E77A00"/>
        </linearGradient>
        <linearGradient id="5x1mekad1aX" x1="1661.461%" x2="-2066.624%" y1="-931.684%" y2="1339.378%">
            <stop offset="0%" stop-color="#FFEC00"/>
            <stop offset="100%" stop-color="#E77A00"/>
        </linearGradient>
        <linearGradient id="smmwx82xmaY" x1="1634.965%" x2="-1884.613%" y1="-979.668%" y2="1306.745%">
            <stop offset="0%" stop-color="#FFEC00"/>
            <stop offset="100%" stop-color="#E77A00"/>
        </linearGradient>
        <linearGradient id="zy93gwej9aZ" x1="4840.88%" x2="-1293.697%" y1="-4030.054%" y2="1194.097%">
            <stop offset="0%" stop-color="#FFEC00"/>
            <stop offset="100%" stop-color="#E77A00"/>
        </linearGradient>
        <linearGradient id="inia3lk25ba" x1="1678.203%" x2="-1680.653%" y1="-1076.966%" y2="1248.121%">
            <stop offset="0%" stop-color="#FFEC00"/>
            <stop offset="100%" stop-color="#E77A00"/>
        </linearGradient>
        <linearGradient id="987wns8ntbb" x1="1552.353%" x2="-2080.141%" y1="-887.926%" y2="1379.797%">
            <stop offset="0%" stop-color="#FFEC00"/>
            <stop offset="100%" stop-color="#E77A00"/>
        </linearGradient>
        <linearGradient id="mpjg3lom7bc" x1="1451.292%" x2="-2294.339%" y1="-786.36%" y2="1449.769%">
            <stop offset="0%" stop-color="#FFEC00"/>
            <stop offset="100%" stop-color="#E77A00"/>
        </linearGradient>
        <linearGradient id="9wb9d1xacbd" x1="1476.056%" x2="-2554.276%" y1="-750.624%" y2="1511.512%">
            <stop offset="0%" stop-color="#FFEC00"/>
            <stop offset="100%" stop-color="#E77A00"/>
        </linearGradient>
        <linearGradient id="1rvskap1obe" x1="1568.777%" x2="-2282.504%" y1="-837.452%" y2="1412.971%">
            <stop offset="0%" stop-color="#FFEC00"/>
            <stop offset="100%" stop-color="#E77A00"/>
        </linearGradient>
        <linearGradient id="ntjgvaxmzbf" x1="2133.25%" x2="-1889.065%" y1="-1127.745%" y2="1146.118%">
            <stop offset="0%" stop-color="#FFEC00"/>
            <stop offset="100%" stop-color="#E77A00"/>
        </linearGradient>
        <linearGradient id="9bidt17o0bg" x1="2461.625%" x2="-1336.878%" y1="-1405.306%" y2="887.364%">
            <stop offset="0%" stop-color="#FFEC00"/>
            <stop offset="100%" stop-color="#E77A00"/>
        </linearGradient>
        <linearGradient id="lrqgp34xabh" x1="2510.882%" x2="-856.281%" y1="-1709.626%" y2="698.544%">
            <stop offset="0%" stop-color="#FFEC00"/>
            <stop offset="100%" stop-color="#E77A00"/>
        </linearGradient>
        <linearGradient id="yxivdufakbi" x1="2340.658%" x2="-736.481%" y1="-1762.523%" y2="672.637%">
            <stop offset="0%" stop-color="#FFEC00"/>
            <stop offset="100%" stop-color="#E77A00"/>
        </linearGradient>
        <linearGradient id="eoclpnw91bj" x1="2189.519%" x2="-796.608%" y1="-1650.522%" y2="723.217%">
            <stop offset="0%" stop-color="#FFEC00"/>
            <stop offset="100%" stop-color="#E77A00"/>
        </linearGradient>
        <linearGradient id="aprh9404mbk" x1="2311.06%" x2="-912.038%" y1="-1612.259%" y2="757.862%">
            <stop offset="0%" stop-color="#FFEC00"/>
            <stop offset="100%" stop-color="#E77A00"/>
        </linearGradient>
        <linearGradient id="2y1yuzzxgbl" x1="2425.762%" x2="-711.499%" y1="-1812.043%" y2="647.086%">
            <stop offset="0%" stop-color="#FFEC00"/>
            <stop offset="100%" stop-color="#E77A00"/>
        </linearGradient>
        <linearGradient id="honafm83nbm" x1="2556.802%" x2="-610.927%" y1="-1947.45%" y2="576.577%">
            <stop offset="0%" stop-color="#FFEC00"/>
            <stop offset="100%" stop-color="#E77A00"/>
        </linearGradient>
        <linearGradient id="xmbqh0jksbn" x1="2229.153%" x2="-603.128%" y1="-1861.71%" y2="623.08%">
            <stop offset="0%" stop-color="#FFEC00"/>
            <stop offset="100%" stop-color="#E77A00"/>
        </linearGradient>
        <linearGradient id="gb0z90ai5bo" x1="2504.888%" x2="-639.296%" y1="-1909.081%" y2="600.462%">
            <stop offset="0%" stop-color="#FFEC00"/>
            <stop offset="100%" stop-color="#E77A00"/>
        </linearGradient>
        <linearGradient id="dml2p6kc0bp" x1="2317.686%" x2="-1741.301%" y1="-1202.38%" y2="1039.345%">
            <stop offset="0%" stop-color="#FFEC00"/>
            <stop offset="100%" stop-color="#E77A00"/>
        </linearGradient>
        <linearGradient id="0yk94z0ycbq" x1="2264.431%" x2="-1563.03%" y1="-1251.486%" y2="998.141%">
            <stop offset="0%" stop-color="#FFEC00"/>
            <stop offset="100%" stop-color="#E77A00"/>
        </linearGradient>
        <linearGradient id="d41wu6ah5br" x1="2342.87%" x2="-1375.066%" y1="-1350.841%" y2="920.861%">
            <stop offset="0%" stop-color="#FFEC00"/>
            <stop offset="100%" stop-color="#E77A00"/>
        </linearGradient>
        <linearGradient id="0e6y7zxl0bs" x1="2203.909%" x2="-1398.44%" y1="-1301.002%" y2="958.67%">
            <stop offset="0%" stop-color="#FFEC00"/>
            <stop offset="100%" stop-color="#E77A00"/>
        </linearGradient>
        <linearGradient id="g92au7mkybt" x1="2218.412%" x2="-1809.3%" y1="-1166.43%" y2="1093.009%">
            <stop offset="0%" stop-color="#FFEC00"/>
            <stop offset="100%" stop-color="#E77A00"/>
        </linearGradient>
        <linearGradient id="cughmcnq4bu" x1="2424.181%" x2="-1037.693%" y1="-1551.935%" y2="783.961%">
            <stop offset="0%" stop-color="#FFEC00"/>
            <stop offset="100%" stop-color="#E77A00"/>
        </linearGradient>
        <linearGradient id="t5d42e12kbv" x1="2280.789%" x2="-1051.43%" y1="-1507.317%" y2="819.433%">
            <stop offset="0%" stop-color="#FFEC00"/>
            <stop offset="100%" stop-color="#E77A00"/>
        </linearGradient>
        <linearGradient id="z9np6k5p0bw" x1="2181.254%" x2="-891.66%" y1="-1641.781%" y2="797.906%">
            <stop offset="0%" stop-color="#FFEC00"/>
            <stop offset="100%" stop-color="#E77A00"/>
        </linearGradient>
        <linearGradient id="bvwsrk6x6bx" x1="2377.36%" x2="-1189.608%" y1="-1455.625%" y2="852.392%">
            <stop offset="0%" stop-color="#FFEC00"/>
            <stop offset="100%" stop-color="#E77A00"/>
        </linearGradient>
        <linearGradient id="m5dpsm8p6by" x1="2586.423%" x2="-579.552%" y1="-1993.362%" y2="557.118%">
            <stop offset="0%" stop-color="#FFEC00"/>
            <stop offset="100%" stop-color="#E77A00"/>
        </linearGradient>
        <linearGradient id="y5yninfmgbz" x1="1955.007%" x2="-1787.182%" y1="-1092.306%" y2="1151.579%">
            <stop offset="0%" stop-color="#FFEC00"/>
            <stop offset="100%" stop-color="#E77A00"/>
        </linearGradient>
        <linearGradient id="y40jcik3sbA" x1="2161.1%" x2="-1869.506%" y1="-1126.906%" y2="1120.268%">
            <stop offset="0%" stop-color="#FFEC00"/>
            <stop offset="100%" stop-color="#E77A00"/>
        </linearGradient>
        <linearGradient id="ivfk90jh4bB" x1="2072.237%" x2="-1944.81%" y1="-1089.407%" y2="1174.042%">
            <stop offset="0%" stop-color="#FFEC00"/>
            <stop offset="100%" stop-color="#E77A00"/>
        </linearGradient>
        <linearGradient id="zovoupyaybC" x1="2108.007%" x2="-1675.955%" y1="-1172.082%" y2="1075.052%">
            <stop offset="0%" stop-color="#FFEC00"/>
            <stop offset="100%" stop-color="#E77A00"/>
        </linearGradient>
        <linearGradient id="j2r1n2q4xbD" x1="2245.439%" x2="-1651.066%" y1="-1220.653%" y2="1034.72%">
            <stop offset="0%" stop-color="#FFEC00"/>
            <stop offset="100%" stop-color="#E77A00"/>
        </linearGradient>
        <linearGradient id="y1zkrnp14bE" x1="2084.597%" x2="-1762.614%" y1="-1145.615%" y2="1114.824%">
            <stop offset="0%" stop-color="#FFEC00"/>
            <stop offset="100%" stop-color="#E77A00"/>
        </linearGradient>
        <linearGradient id="8q8fs8m2qbF" x1="1936.428%" x2="-2091.337%" y1="-1009.332%" y2="1252.363%">
            <stop offset="0%" stop-color="#FFEC00"/>
            <stop offset="100%" stop-color="#E77A00"/>
        </linearGradient>
        <linearGradient id="dyii9xzlebG" x1="2041.208%" x2="-1591.915%" y1="-1188.491%" y2="1071.736%">
            <stop offset="0%" stop-color="#FFEC00"/>
            <stop offset="100%" stop-color="#E77A00"/>
        </linearGradient>
        <linearGradient id="mrwmvlyiibH" x1="2211.596%" x2="-823.199%" y1="-1672.971%" y2="746.434%">
            <stop offset="0%" stop-color="#FFEC00"/>
            <stop offset="100%" stop-color="#E77A00"/>
        </linearGradient>
        <linearGradient id="p2occszdibI" x1="2305.959%" x2="-993.285%" y1="-1574.57%" y2="801.65%">
            <stop offset="0%" stop-color="#FFEC00"/>
            <stop offset="100%" stop-color="#E77A00"/>
        </linearGradient>
        <linearGradient id="m9qjmsjjnbJ" x1="2168.53%" x2="-1086.153%" y1="-1493.825%" y2="878.007%">
            <stop offset="0%" stop-color="#FFEC00"/>
            <stop offset="100%" stop-color="#E77A00"/>
        </linearGradient>
        <linearGradient id="rtn3pl8z0bK" x1="2263.15%" x2="-1219.942%" y1="-1443.304%" y2="907.175%">
            <stop offset="0%" stop-color="#FFEC00"/>
            <stop offset="100%" stop-color="#E77A00"/>
        </linearGradient>
        <linearGradient id="wzzp9chxpbL" x1="2211.214%" x2="-1034.555%" y1="-1544.312%" y2="850.383%">
            <stop offset="0%" stop-color="#FFEC00"/>
            <stop offset="100%" stop-color="#E77A00"/>
        </linearGradient>
        <linearGradient id="24nwhjbz5bM" x1="2180.266%" x2="-1006.156%" y1="-1522.994%" y2="830.378%">
            <stop offset="0%" stop-color="#FFEC00"/>
            <stop offset="100%" stop-color="#E77A00"/>
        </linearGradient>
        <linearGradient id="k5wqd5wwjbN" x1="2188.241%" x2="-1482.825%" y1="-1270.556%" y2="996.873%">
            <stop offset="0%" stop-color="#FFEC00"/>
            <stop offset="100%" stop-color="#E77A00"/>
        </linearGradient>
        <linearGradient id="0w7z7ce4zbO" x1="2340.957%" x2="-1027.742%" y1="-1593.576%" y2="823.632%">
            <stop offset="0%" stop-color="#FFEC00"/>
            <stop offset="100%" stop-color="#E77A00"/>
        </linearGradient>
        <linearGradient id="j9xycu4udbP" x1="2359.564%" x2="-947.42%" y1="-1624.38%" y2="773.545%">
            <stop offset="0%" stop-color="#FFEC00"/>
            <stop offset="100%" stop-color="#E77A00"/>
        </linearGradient>
        <linearGradient id="j3xl6eoakbQ" x1="2130.139%" x2="-1331.872%" y1="-1320.216%" y2="960.383%">
            <stop offset="0%" stop-color="#FFEC00"/>
            <stop offset="100%" stop-color="#E77A00"/>
        </linearGradient>
        <linearGradient id="3o8rpxw76bR" x1="2294.07%" x2="-1543.285%" y1="-1292.146%" y2="1002.983%">
            <stop offset="0%" stop-color="#FFEC00"/>
            <stop offset="100%" stop-color="#E77A00"/>
        </linearGradient>
        <linearGradient id="ix71jllsdbS" x1="2277.32%" x2="-1136.071%" y1="-1472.794%" y2="861.087%">
            <stop offset="0%" stop-color="#FFEC00"/>
            <stop offset="100%" stop-color="#E77A00"/>
        </linearGradient>
        <linearGradient id="iwn7je5ktbT" x1="1984.862%" x2="-1429.21%" y1="-1240.646%" y2="1036.673%">
            <stop offset="0%" stop-color="#FFEC00"/>
            <stop offset="100%" stop-color="#E77A00"/>
        </linearGradient>
        <linearGradient id="iz4p20fpzbU" x1="2224.86%" x2="-1290.314%" y1="-1369.839%" y2="925.354%">
            <stop offset="0%" stop-color="#FFEC00"/>
            <stop offset="100%" stop-color="#E77A00"/>
        </linearGradient>
        <linearGradient id="ko1nph6ohbV" x1="2126.508%" x2="-1227.101%" y1="-1391.163%" y2="936.54%">
            <stop offset="0%" stop-color="#FFEC00"/>
            <stop offset="100%" stop-color="#E77A00"/>
        </linearGradient>
        <linearGradient id="2tm6xoqambW" x1="2206.021%" x2="-1373.441%" y1="-1340.749%" y2="968.428%">
            <stop offset="0%" stop-color="#FFEC00"/>
            <stop offset="100%" stop-color="#E77A00"/>
        </linearGradient>
        <linearGradient id="k83u3n7bobX" x1="2365.785%" x2="-1275.679%" y1="-1420.401%" y2="892.028%">
            <stop offset="0%" stop-color="#FFEC00"/>
            <stop offset="100%" stop-color="#E77A00"/>
        </linearGradient>
        <linearGradient id="9b1uxahdobY" x1="2013.98%" x2="-2003.922%" y1="-1049.872%" y2="1199.764%">
            <stop offset="0%" stop-color="#FFEC00"/>
            <stop offset="100%" stop-color="#E77A00"/>
        </linearGradient>
        <linearGradient id="4nsw2ei4fbZ" x1="1375.247%" x2="-2673.174%" y1="-700.723%" y2="1592.652%">
            <stop offset="0%" stop-color="#FFEC00"/>
            <stop offset="100%" stop-color="#E77A00"/>
        </linearGradient>
        <linearGradient id="o5lshetcjca" x1="1443.118%" x2="-2632.808%" y1="-740.539%" y2="1572.371%">
            <stop offset="0%" stop-color="#FFEC00"/>
            <stop offset="100%" stop-color="#E77A00"/>
        </linearGradient>
        <linearGradient id="rahm6to14cb" x1="1372.819%" x2="-2745.069%" y1="-700.132%" y2="1634.862%">
            <stop offset="0%" stop-color="#FFEC00"/>
            <stop offset="100%" stop-color="#E77A00"/>
        </linearGradient>
        <linearGradient id="x7sq1b14tcc" x1="1308.924%" x2="-2876.693%" y1="-659.457%" y2="1699.574%">
            <stop offset="0%" stop-color="#FFEC00"/>
            <stop offset="100%" stop-color="#E77A00"/>
        </linearGradient>
        <linearGradient id="9j509fjpxcd" x1="1642.553%" x2="-2752.124%" y1="-782.276%" y2="1514.38%">
            <stop offset="0%" stop-color="#FFEC00"/>
            <stop offset="100%" stop-color="#E77A00"/>
        </linearGradient>
        <linearGradient id="x417a68vtce" x1="1459.65%" x2="-2592.365%" y1="-744.544%" y2="1539.251%">
            <stop offset="0%" stop-color="#FFEC00"/>
            <stop offset="100%" stop-color="#E77A00"/>
        </linearGradient>
        <linearGradient id="rm6wq1r1hcf" x1="1139.997%" x2="-2747.943%" y1="-617.724%" y2="1764.073%">
            <stop offset="0%" stop-color="#FFEC00"/>
            <stop offset="100%" stop-color="#E77A00"/>
        </linearGradient>
        <linearGradient id="n8hef3kh0cg" x1="1300.433%" x2="-2775.758%" y1="-662.062%" y2="1658.914%">
            <stop offset="0%" stop-color="#FFEC00"/>
            <stop offset="100%" stop-color="#E77A00"/>
        </linearGradient>
        <linearGradient id="lrmlg3rbych" x1="1660.727%" x2="-2392.248%" y1="-859.807%" y2="1429.202%">
            <stop offset="0%" stop-color="#FFEC00"/>
            <stop offset="100%" stop-color="#E77A00"/>
        </linearGradient>
        <linearGradient id="bsji1rqg8ci" x1="1577.407%" x2="-2537.656%" y1="-818.388%" y2="1520.982%">
            <stop offset="0%" stop-color="#FFEC00"/>
            <stop offset="100%" stop-color="#E77A00"/>
        </linearGradient>
        <linearGradient id="9cfy3hwj0cj" x1="1441.069%" x2="-2701.998%" y1="-736.276%" y2="1605.811%">
            <stop offset="0%" stop-color="#FFEC00"/>
            <stop offset="100%" stop-color="#E77A00"/>
        </linearGradient>
        <linearGradient id="2yn7hm1kack" x1="1506.882%" x2="-2582.273%" y1="-778.651%" y2="1546.753%">
            <stop offset="0%" stop-color="#FFEC00"/>
            <stop offset="100%" stop-color="#E77A00"/>
        </linearGradient>
        <linearGradient id="2jihf6zwjcl" x1="1513.82%" x2="-2660.245%" y1="-777.67%" y2="1582.288%">
            <stop offset="0%" stop-color="#FFEC00"/>
            <stop offset="100%" stop-color="#E77A00"/>
        </linearGradient>
        <linearGradient id="jd8zwgd2ncm" x1="1642.192%" x2="-2422.298%" y1="-859.811%" y2="1462.732%">
            <stop offset="0%" stop-color="#FFEC00"/>
            <stop offset="100%" stop-color="#E77A00"/>
        </linearGradient>
        <linearGradient id="vq3z5fdktcn" x1="1591.276%" x2="-2146.752%" y1="-894.214%" y2="1395.872%">
            <stop offset="0%" stop-color="#FFEC00"/>
            <stop offset="100%" stop-color="#E77A00"/>
        </linearGradient>
        <linearGradient id="wqb6vcz6qco" x1="1578.227%" x2="-2476.8%" y1="-815.411%" y2="1480.935%">
            <stop offset="0%" stop-color="#FFEC00"/>
            <stop offset="100%" stop-color="#E77A00"/>
        </linearGradient>
        <linearGradient id="liu6wzq04cp" x1="1373.951%" x2="-2824.979%" y1="-693.857%" y2="1665.417%">
            <stop offset="0%" stop-color="#FFEC00"/>
            <stop offset="100%" stop-color="#E77A00"/>
        </linearGradient>
        <linearGradient id="01stiqs46cq" x1="2067.962%" x2="-1989.258%" y1="-1088.011%" y2="1200.219%">
            <stop offset="0%" stop-color="#FFEC00"/>
            <stop offset="100%" stop-color="#E77A00"/>
        </linearGradient>
        <linearGradient id="uqgqlr51pcr" x1="1988.477%" x2="-2081.296%" y1="-1048.281%" y2="1257.503%">
            <stop offset="0%" stop-color="#FFEC00"/>
            <stop offset="100%" stop-color="#E77A00"/>
        </linearGradient>
        <linearGradient id="frfx6h4lzcs" x1="1850.072%" x2="-2229.239%" y1="-974.248%" y2="1346.724%">
            <stop offset="0%" stop-color="#FFEC00"/>
            <stop offset="100%" stop-color="#E77A00"/>
        </linearGradient>
        <linearGradient id="mmwvl8lkjct" x1="1718.151%" x2="-2388.651%" y1="-894.739%" y2="1430.88%">
            <stop offset="0%" stop-color="#FFEC00"/>
            <stop offset="100%" stop-color="#E77A00"/>
        </linearGradient>
        <linearGradient id="norpt8ndvcu" x1="2002.839%" x2="-2041.245%" y1="-1046.947%" y2="1224.628%">
            <stop offset="0%" stop-color="#FFEC00"/>
            <stop offset="100%" stop-color="#E77A00"/>
        </linearGradient>
        <linearGradient id="5sgrcgsv0cv" x1="1652.058%" x2="-2501.739%" y1="-855.224%" y2="1491.627%">
            <stop offset="0%" stop-color="#FFEC00"/>
            <stop offset="100%" stop-color="#E77A00"/>
        </linearGradient>
        <linearGradient id="a6c8g2j86cw" x1="1860.942%" x2="-2187.253%" y1="-971.842%" y2="1311.964%">
            <stop offset="0%" stop-color="#FFEC00"/>
            <stop offset="100%" stop-color="#E77A00"/>
        </linearGradient>
        <linearGradient id="i72kiewr6cx" x1="1780.014%" x2="-2273.672%" y1="-932.89%" y2="1369.838%">
            <stop offset="0%" stop-color="#FFEC00"/>
            <stop offset="100%" stop-color="#E77A00"/>
        </linearGradient>
        <linearGradient id="qgbq4sgfacy" x1="1919.404%" x2="-2128.224%" y1="-1010.597%" y2="1286.133%">
            <stop offset="0%" stop-color="#FFEC00"/>
            <stop offset="100%" stop-color="#E77A00"/>
        </linearGradient>
        <linearGradient id="c06i7n0b5cz" x1="-1.433%" x2="101.505%" y1="51.671%" y2="48.41%">
            <stop offset="0%" stop-color="#043572"/>
            <stop offset="31%" stop-color="#0099D8"/>
            <stop offset="92%" stop-color="#AACFEC"/>
        </linearGradient>
        <filter id="xyckimvyva">
            <feColorMatrix in="SourceGraphic" values="0 0 0 0 1.000000 0 0 0 0 1.000000 0 0 0 0 1.000000 0 0 0 1.000000 0"/>
        </filter>
    </defs>
    <g fill="none" fill-rule="evenodd" opacity=".149">
        <g>
            <g filter="url(#xyckimvyva)" transform="translate(-815 -430)">
                <g fill-rule="nonzero">
                    <path fill="url(#otrn7pp6jb)" d="M455.82 159.507c-11.572 1.082-17.307 15.28-11.572 22.529 6.242 7.83 19.963 1.482 21.604-10.013 1.034-7.129-3.465-12.756-10.032-12.516z" transform="translate(815 430)"/>
                    <path fill="url(#xhbkznnq7c)" d="M409.594 211.274c3.376 8.631 14.015 8.21 19.963-.78 5.379-8.892 1.394-19.345-7.243-18.985-9.54.941-15.233 11.935-12.72 19.765z" transform="translate(815 430)"/>
                    <path fill="url(#sqiwic4edd)" d="M427.48 160.51c-11.69 1.219-17.167 16.487-10.777 23.261 6.708 7.095 19.607-.6 20.282-12.11.298-6.575-3.89-11.41-9.506-11.151z" transform="translate(815 430)"/>
                    <path fill="url(#ustrljl1be)" d="M438.666 210.314c3.656 8.647 14.522 8.146 20.758-.983 5.646-9.01 1.523-19.202-7.617-18.82-4.593.535-8.711 3.051-11.247 6.873-2.536 3.82-3.23 8.555-1.894 12.93z" transform="translate(815 430)"/>
                    <path fill="url(#rz2d7xoyjf)" d="M473.274 180.157c6.206 7.71 19.915 1.17 21.578-10.293 1.034-7.124-3.468-12.673-10.018-12.35-11.6 1.19-17.34 15.478-11.56 22.643z" transform="translate(815 430)"/>
                    <path fill="url(#zwik30fs4g)" d="M479.824 189.52c-4.592.58-8.697 3.125-11.234 6.966-2.538 3.84-3.253 8.59-1.957 13 3.649 8.556 14.516 7.869 20.775-1.335 5.668-9.063 1.55-19.157-7.584-18.631z" transform="translate(815 430)"/>
                    <path fill="url(#23e4uhd1oh)" d="M151.067 242.99c-4.295 3.367-10.883 14.28-12.671 20.114-1.438 5.14 1.438 3.121 2.351 2.366 2.595-2.335 4.819-5.09 6.588-8.16 2.41-3.487 7.152-13.646 5.208-14.727-.563-.286-1.321.245-1.476.408z" transform="translate(815 430)"/>
                    <path fill="url(#077ax03qji)" d="M166.82 215.698c-.313-.471-1.078 0-1.51.354-5.645 4.792-15.682 22.409-12.8 22.448 3.567.059 16.133-19.974 14.31-22.802z" transform="translate(815 430)"/>
                    <path fill="url(#rzb9z4l83j)" d="M117.025 280.818s-1.493 2.74-.876 2.681c.617-.06 3.125-2.701 7.742-9.652 2.349-3.416 7.642-12.453 7.065-13.347-.159 0-.298 0-.955.755-4.753 6.228-9.087 12.764-12.976 19.563z" transform="translate(815 430)"/>
                    <path fill="url(#v22cq93rck)" d="M181.013 241.269c-.325 6.656 5.44 4.833 10.452-1.13.73-.892 1.408-1.824 2.03-2.792 5.683-8.656 6.089-17.412.65-15.61-6.028 2.497-12.523 13.134-13.132 19.532z" transform="translate(815 430)"/>
                    <path fill="url(#qac57p3nvl)" d="M155.782 224.516c-.257-.12-.868.475-1.065.673-4.38 4.695-15.642 22.682-13.433 22.305 3.038-.416 16.589-21.988 14.498-22.978z" transform="translate(815 430)"/>
                    <path fill="url(#qtt0ik222m)" d="M178.861 227.8c-5.408 2.784-11.8 13.48-12.784 19.75-.688 5.73 3.344 4.728 7.553.18 1.32-1.461 2.524-3.029 3.599-4.687 2.596-3.485 6.766-13.68 3.678-15.363-.665-.277-1.416-.232-2.046.12z" transform="translate(815 430)"/>
                    <path fill="url(#g7qr60s3fn)" d="M205.768 193.769c-8.096 3.86-15.607 21.309-11.706 23.457 4.585 2.527 15.608-13.071 14.906-21.11-.098-2.248-1.307-3.103-3.2-2.347z" transform="translate(815 430)"/>
                    <path fill="url(#pfpsmgbrho)" d="M193.613 200.243c-.439-.845-1.276-.965-2.472-.382-6.999 4.024-16.489 22.736-11.963 23.6 5.263 1.007 17.106-18.087 14.435-23.218z" transform="translate(815 430)"/>
                    <path fill="url(#ivw29lxrdp)" d="M164.41 234.922c-4.987 3.029-11.758 13.952-13.197 19.888-1.135 5.593 2.513 3.816 5.23 1.272 1.96-1.935 3.708-4.074 5.21-6.38 2.554-3.433 7.176-13.67 4.581-15.042-.71-.404-1.54.06-1.824.262z" transform="translate(815 430)"/>
                    <path fill="url(#7rsx78qgtq)" d="M177.703 206.965c-6.729 4.57-16.77 23.056-12.803 23.523 4.52.549 16.77-18.668 14.91-23.38-.369-.753-1.023-.814-2.107-.143z" transform="translate(815 430)"/>
                    <path fill="url(#igtp8dww0r)" d="M85.622 344.709c1.092-3.922-.429-3.432-1.443-2.726-.682.51-2.75 2.098-7.039 8.57-2.32 3.315-8.111 13.728-5.46 13.944 2.653.216 11.524-11.63 13.942-19.788z" transform="translate(815 430)"/>
                    <path fill="url(#agw3iff3ls)" d="M45.52 399.5c3.567 0 16.106-19.99 14.304-22.802-.294-.471-1.058 0-1.49.354-5.681 4.796-15.733 22.409-12.813 22.448z" transform="translate(815 430)"/>
                    <path fill="url(#5ymaoxtubt)" d="M57.9 392.49c4.486.528 16.756-18.698 14.913-23.372-.287-.773-1.004-.813-2.049-.163-6.76 4.593-16.838 23.067-12.864 23.534z" transform="translate(815 430)"/>
                    <path fill="url(#6qq9o0sqtu)" d="M98.81 337.165c.794-4.354-1.08-3.909-2.26-3.24-.794.486-3.258 2.025-7.716 8.647-2.036 2.592-7.798 13.385-5.151 14.803 2.911 1.519 13.09-11.118 15.127-20.21z" transform="translate(815 430)"/>
                    <path fill="url(#ijoav4jsiv)" d="M91 319.5h.159c2.897-2.002 14.325-20.298 14.841-23h-.119c-.271.241-.517.51-.734.8-2.401 3.183-13.75 20.298-14.147 22.2z" transform="translate(815 430)"/>
                    <path fill="url(#sqthas7hmw)" d="M75.237 346.493c2.827-.635 16.464-22.109 14.586-22.982-.217-.1-.81.516-.988.734-4.467 5.001-15.594 22.665-13.598 22.248z" transform="translate(815 430)"/>
                    <path fill="url(#1sbe9kkvzx)" d="M56.654 369.459c0 .12-8.13 12.165-7.632 13.041 1.415-.18 9.963-12.165 13.949-20.348 0 0 1.434-2.768.916-2.648 0 0-.259.12-.817.796-.877 1.055-2.43 3.066-6.416 9.159z" transform="translate(815 430)"/>
                    <path fill="url(#vlnf5t9pby)" d="M34.28 408.492c3-.515 16.563-21.986 14.51-22.977-.257-.119-.85.495-1.047.693-4.382 4.754-15.655 22.72-13.463 22.284z" transform="translate(815 430)"/>
                    <path fill="url(#a46q9yogjz)" d="M400.734 161.51c-1.506.11-2.976.505-4.33 1.164-10.21 5.381-12.803 19.76-4.308 24.096 8.7 3.715 19.746-7.45 17.643-17.831-.58-4.403-4.495-7.634-9.005-7.43z" transform="translate(815 430)"/>
                    <path fill="url(#yq0x9fa2yA)" d="M222.952 187.71c-8.997 3.467-16.155 20.98-11.476 23.442 5.378 2.856 16.755-12.548 15.415-20.841-.38-2.325-1.82-3.27-3.939-2.6z" transform="translate(815 430)"/>
                    <path fill="url(#lun7hs9rvB)" d="M305.243 217.898c2.175 8.1 11.622 7.277 17.745-1.57 5.6-8.708 3.021-18.516-4.673-17.79-8.56 1.334-14.623 12.024-13.072 19.36z" transform="translate(815 430)"/>
                    <path fill="url(#ukvlbpplsC)" d="M281.155 221.021c1.766 8.048 10.675 7.062 16.706-1.854 5.536-8.758 3.433-18.463-3.829-17.615-8.056 1.499-14.087 12.23-12.877 19.47z" transform="translate(815 430)"/>
                    <path fill="url(#gerw70si7D)" d="M324.878 167.543c-10.416 1.83-16.31 17.89-10.73 23.322 5.58 5.432 17.093-3.523 17.817-14.367.392-5.688-2.584-9.447-7.087-8.955z" transform="translate(815 430)"/>
                    <path fill="url(#h884rpws2E)" d="M349.154 165.537c-11.029 1.705-16.772 18.275-10.671 24.143 6.1 5.869 18.064-3.37 18.5-14.66.279-5.89-3.06-9.95-7.829-9.483z" transform="translate(815 430)"/>
                    <path fill="url(#m40anuvlyF)" d="M374.454 163.53c-11.076 1.471-16.945 16.764-11.236 23.353 6.03 6.972 18.532-.947 19.698-12.452.703-6.488-3.076-11.364-8.462-10.9z" transform="translate(815 430)"/>
                    <path fill="url(#yl215cnzpG)" d="M390.21 194.65c-6.94 3.434-10.568 11.194-8.74 18.692.73 2.394 2.447 4.367 4.723 5.427 4.198 1.789 10.516.523 15.178-6.351 5.55-8.904 1.857-19.155-6.822-18.914-1.508.094-2.983.483-4.34 1.146z" transform="translate(815 430)"/>
                    <path fill="url(#3fywhx5goH)" d="M355.449 214.428c2.792 8.553 12.852 7.968 18.853-1.11 5.486-8.955 2.159-19.323-5.941-18.799-9.229 1.13-15.07 12.163-12.912 19.91z" transform="translate(815 430)"/>
                    <path fill="url(#uzls5f1mlI)" d="M329.341 216.529c2.554 8.52 12.544 7.79 18.755-1.34 5.659-9.006 2.635-19.29-5.496-18.662-9.05 1.238-15.138 12.334-13.259 20.002z" transform="translate(815 430)"/>
                    <path fill="url(#6zuiiw16kJ)" d="M218.003 231.642c.56 7.654 8.267 5.99 14.237-3.065 5.531-8.852 4.832-18.272-1.258-16.953-6.889 2.091-13.139 13.034-12.979 20.018z" transform="translate(815 430)"/>
                    <path fill="url(#211sk1kgaK)" d="M241.217 181.66c-9.192 3.007-16.341 20.326-11.827 24.066 5.025 4.188 16.812-9.533 16.607-19.33-.163-3.64-1.92-5.469-4.78-4.737z" transform="translate(815 430)"/>
                    <path fill="url(#dq241x0m8L)" d="M199 236.02c.117 7.258 6.876 5.041 12.034-1.962.312-.412.703-1 .996-1.432 5.43-8.554 5.255-17.5-.313-15.95-6.31 2.237-12.444 12.791-12.717 19.344z" transform="translate(815 430)"/>
                    <path fill="url(#7k6s4w7owM)" d="M302.275 170.563c-10.304 1.982-16.653 18.122-11.379 23.396 5.274 5.274 16.957-3.827 18.052-14.633.467-5.67-2.251-9.358-6.673-8.763z" transform="translate(815 430)"/>
                    <path fill="url(#yg65493hoN)" d="M259.75 177.617c-9.416 2.705-16.022 19.985-11.048 24.063 4.973 4.077 16.14-7.853 16.297-18.027.059-4.36-2.025-6.722-5.249-6.036z" transform="translate(815 430)"/>
                    <path fill="url(#amcal5tfjO)" d="M238.025 227.369c1.012 7.85 9.175 6.468 15.333-2.604 5.712-8.91 4.497-18.363-2.188-17.161-7.413 1.862-13.611 12.716-13.145 19.765z" transform="translate(815 430)"/>
                    <path fill="url(#pmay5ye51P)" d="M259.086 224.187c1.366 7.954 9.76 6.781 15.617-2.207 5.465-8.85 3.904-18.454-2.968-17.4-7.535 1.65-13.528 12.448-12.65 19.607z" transform="translate(815 430)"/>
                    <path fill="url(#u9mekchj9Q)" d="M280.995 173.584c-10.14 2.4-16.52 19.678-10.9 23.998 5.62 4.32 17.2-7.44 16.9-17.699-.12-4.42-2.48-6.879-6-6.3z" transform="translate(815 430)"/>
                    <path fill="url(#igvfn2fh9R)" d="M160.838 305.084c5.8 3.057 17.07-11.435 16.104-20.648-.33-3.037-2.057-4.443-4.648-3.77-9.79 3.322-16.782 21.605-11.456 24.418z" transform="translate(815 430)"/>
                    <path fill="url(#r68yg84tqS)" d="M245.107 288.818c5.714 5.568 17.063-3.58 17.85-14.38.434-5.665-2.521-9.403-6.994-8.891-10.462 1.869-16.373 17.881-10.856 23.271z" transform="translate(815 430)"/>
                    <path fill="url(#k2ib9rvvqT)" d="M268.44 286.666c6.262 5.917 18.005-3.415 18.545-14.698.26-5.917-3-9.88-7.762-9.434-11.003 1.728-16.844 18.379-10.782 24.132z" transform="translate(815 430)"/>
                    <path fill="url(#n0kqjcqnkU)" d="M294.968 240.55c.388-5.703-2.778-9.499-7.518-9.007-10.95 1.79-17.057 17.859-11.154 23.307 5.904 5.448 17.977-3.442 18.672-14.3z" transform="translate(815 430)"/>
                    <path fill="url(#bi9j8n9llV)" d="M318.898 240.307c.745-6.483-2.649-11.224-7.847-10.778-10.475 1.58-16.34 16.917-11.103 23.42 5.63 6.89 17.616-1.134 18.95-12.642z" transform="translate(815 430)"/>
                    <path fill="url(#zykdpqg5mW)" d="M221.835 291.92c5.44 5.412 16.914-3.965 18.08-14.67.614-5.63-2.147-9.298-6.565-8.683-10.185 2.082-16.73 18.139-11.515 23.353z" transform="translate(815 430)"/>
                    <path fill="url(#81vgu2ip4X)" d="M247.99 243.9c-.16-4.418-2.558-6.896-5.995-6.317-10.234 2.36-16.55 19.651-10.834 23.99 5.717 4.337 17.21-7.377 16.83-17.673z" transform="translate(815 430)"/>
                    <path fill="url(#lnemjyo9nY)" d="M201.044 295.553c5.745 4.424 17.155-7.527 16.953-17.737 0-4.384-2.398-6.827-5.906-6.226-10.12 2.462-16.61 19.719-11.047 23.963z" transform="translate(815 430)"/>
                    <path fill="url(#x5uaxizcdZ)" d="M270.933 243.35c.544-5.663-2.296-9.366-6.747-8.791-10.313 1.98-16.578 18.077-11.24 23.383 5.338 5.306 16.98-3.782 17.987-14.592z" transform="translate(815 430)"/>
                    <path fill="url(#7a0cfs3ymaa)" d="M293.18 283.905c6.073 6.946 18.523-1.01 19.737-12.52.689-6.482-2.996-11.247-8.38-10.863-11.074 1.494-17.026 16.8-11.358 23.383z" transform="translate(815 430)"/>
                    <path fill="url(#sdhbjiay3ab)" d="M442.872 253.521c-11.626 1.342-17.378 15.67-11.606 22.742 6.098 7.601 19.898.895 21.585-10.568 1.036-7.133-3.435-12.58-9.98-12.174z" transform="translate(815 430)"/>
                    <path fill="url(#cxk21lss3ac)" d="M376.787 281.727c9.25 3.823 20.428-7.244 17.832-17.691-.927-4.548-5.082-7.745-9.779-7.525-1.56.066-3.092.44-4.503 1.1-10.59 5.184-12.72 19.673-3.55 24.116z" transform="translate(815 430)"/>
                    <path fill="url(#y50qrq3j9ad)" d="M402.282 278.126c6.218 7.74 19.93 1.25 21.57-10.219 1.033-7.135-3.463-12.698-10.005-12.395-11.625 1.149-17.357 15.419-11.565 22.614z" transform="translate(815 430)"/>
                    <path fill="url(#34qb4qaxbae)" d="M398.664 231.998c-.806-4.502-4.764-7.703-9.26-7.488-1.5.07-2.97.445-4.324 1.104-10.168 5.3-12.36 19.755-3.692 24.091 8.845 3.895 19.665-7.247 17.276-17.707z" transform="translate(815 430)"/>
                    <path fill="url(#jkfnrkybhaf)" d="M456.852 233.84c1.034-7.133-3.45-12.668-10.002-12.325-11.625 1.233-17.346 15.516-11.584 22.669 6.208 7.677 19.942 1.11 21.586-10.345z" transform="translate(815 430)"/>
                    <path fill="url(#rhsed7bj5ag)" d="M346.675 280.783c6.679 7.084 19.578-.64 20.296-12.147.419-6.523-3.728-11.386-9.43-11.126-11.704 1.24-17.227 16.51-10.866 23.273z" transform="translate(815 430)"/>
                    <path fill="url(#lgnb5vusxah)" d="M319.367 282.829c6.189 7.034 18.605-.784 19.584-12.3.53-6.512-3.31-11.335-8.715-11.014-11.143 1.347-16.744 16.641-10.87 23.314z" transform="translate(815 430)"/>
                    <path fill="url(#mckjf21qjai)" d="M371.96 236.58c.487-6.516-3.57-11.367-9.27-11.067-11.644 1.303-17.364 16.6-11.137 23.296 6.552 7.056 19.515-.722 20.407-12.23z" transform="translate(815 430)"/>
                    <path fill="url(#cqcf8yavlaj)" d="M226 247.668c0-4.373-2.071-6.75-5.334-6.045-9.456 2.64-15.942 19.908-10.921 24.039 5.02 4.13 16.196-7.819 16.255-17.994z" transform="translate(815 430)"/>
                    <path fill="url(#k1637ltg7ak)" d="M344.933 238.455c.62-6.505-3.12-11.298-8.538-10.936-11.078 1.45-16.897 16.736-11.138 23.362 6.079 6.968 18.576-.926 19.676-12.426z" transform="translate(815 430)"/>
                    <path fill="url(#u2618i02val)" d="M126.343 273.5c.789 0 3.667-2.284 8.28-9.215 3.096-4.45 7.887-13.94 5.915-13.783-.396.093-.755.306-1.025.61-3.765 3.485-10.646 14.217-12.854 19.395 0 .04-1.242 2.875-.316 2.993z" transform="translate(815 430)"/>
                    <path fill="url(#7tjem93tpam)" d="M139.78 270.139c-.325-.77-1.058-.852-2.178-.203-6.843 4.499-16.76 22.982-12.626 23.549 4.643.628 16.8-18.624 14.805-23.346z" transform="translate(815 430)"/>
                    <path fill="url(#ivn0bqtokan)" d="M97.829 329.492c4.345.449 16.702-18.827 15.014-23.411-.268-.754-.968-.795-2.06 0-6.57 4.564-16.764 23.106-12.954 23.411z" transform="translate(815 430)"/>
                    <path fill="url(#bavc3zep7ao)" d="M100.338 309.496c3.204-.395 16.668-21.868 14.408-22.975-.295-.139-.924.454-1.12.652-4.521 4.627-15.705 22.62-13.288 22.323z" transform="translate(815 430)"/>
                    <path fill="url(#dmt0d88frap)" d="M126.786 277.699c-.333-.471-1.134 0-1.565.333-5.866 4.69-15.644 22.35-12.671 22.467 3.735.157 16.23-19.818 14.236-22.8z" transform="translate(815 430)"/>
                    <path fill="url(#4u89w392vaq)" d="M73.71 350.5c-.118 0-.414 0-1.066.651-2.575 2.688-4.84 5.655-6.758 8.844-1.975 2.724-8.575 13.68-6.48 13.503 2.094-.178 10.847-12.2 13.949-20.057.02-.02 1.166-2.902.356-2.941z" transform="translate(815 430)"/>
                    <path fill="url(#35mmrdq8iar)" d="M99.852 314.671c-.256-.413-.924 0-1.435.414-5.483 4.845-15.721 22.454-12.95 22.415 3.42-.04 16.036-20.17 14.385-22.829z" transform="translate(815 430)"/>
                    <path fill="url(#odq74as8pas)" d="M111.155 322.47c5.076.887 16.996-18.147 14.508-23.248-.422-.826-1.225-.947-2.388-.342-6.923 4.072-16.635 22.804-12.12 23.59z" transform="translate(815 430)"/>
                    <path fill="url(#n9357uk18at)" d="M187.87 253.342c-.42-2.32-1.893-3.283-3.985-2.654-9.063 3.4-16.114 20.915-11.354 23.45 5.458 2.91 16.812-12.442 15.338-20.796z" transform="translate(815 430)"/>
                    <path fill="url(#7yj02aqxwau)" d="M143.386 309.168c5.289 2.786 16.753-12.646 15.522-20.905-.343-2.292-1.756-3.221-3.855-2.55-8.881 3.557-16.208 21.044-11.667 23.455z" transform="translate(815 430)"/>
                    <path fill="url(#uqhog0wyuav)" d="M72.19 385.463c5.215.987 17.085-18.124 14.427-23.219-.44-.846-1.259-.967-2.458-.383-7.014 3.948-16.526 22.716-11.97 23.602z" transform="translate(815 430)"/>
                    <path fill="url(#wjqdyjqpzaw)" d="M206.994 250.442c-.122-3.674-2.032-5.501-4.876-4.79-9.244 2.943-16.254 20.177-11.682 24.054 5.2 4.243 16.863-9.44 16.558-19.264z" transform="translate(815 430)"/>
                    <path fill="url(#beoxt13c6ax)" d="M127.02 315.25c4.57 2.516 16.242-14.654 14.868-21.862-.45-2.335-2.138-1.996-3.118-1.617-7.983 3.953-15.574 21.383-11.75 23.48z" transform="translate(815 430)"/>
                    <path fill="url(#bkexv3mo3ay)" d="M153.945 264.272c-.298-2.268-1.988-1.867-2.823-1.445-6.937 3.814-16.062 21.358-12.205 23.466 4.214 2.288 15.982-14.995 15.028-22.02z" transform="translate(815 430)"/>
                    <path fill="url(#yev32pzohaz)" d="M169.956 259.138c-.226-2.244-1.523-3.118-3.56-2.383-8.686 3.774-16.466 21.234-12.185 23.459 4.96 2.582 16.59-12.932 15.745-21.076z" transform="translate(815 430)"/>
                    <path fill="url(#4deru3zzlaA)" d="M180.648 299.64c5.119 4.22 16.13-7.938 16.349-18.057.099-4.342-1.984-6.665-5.159-5.958-9.384 2.767-16.09 19.995-11.19 24.015z" transform="translate(815 430)"/>
                    <path fill="url(#3ozks52qwaB)" d="M427.858 236.018c1.012-7.138-3.482-12.751-10.02-12.51-11.618 1.062-17.346 15.296-11.557 22.554 6.214 7.799 19.937 1.423 21.577-10.044z" transform="translate(815 430)"/>
                    <path fill="url(#csn2lu76iaC)" d="M178.66 202.498c3.885.254 16.276-19.745 14.081-22.78-.35-.51-1.165 0-1.63.274-5.905 4.661-15.752 22.33-12.45 22.506z" transform="translate(815 430)"/>
                    <path fill="url(#a3vpi0t1kaD)" d="M157.179 220.5c2.758-1.679 14.523-19.983 14.821-23h-.179c-.29.224-.55.486-.773.78-2.858 3.556-13.89 20.142-14.048 22.2l.179.02z" transform="translate(815 430)"/>
                    <path fill="url(#337fre0qraE)" d="M167.366 211.498c3.063-.237 15.81-20.31 14.546-22.836-.198-.395-.83 0-1.304.473-5.396 5.211-15.673 22.56-13.242 22.363z" transform="translate(815 430)"/>
                    <path fill="url(#phsyrfadjaF)" d="M163 208.5c-4.51 6.906-10.51 16.155-15 23 .437-.525 3.199-4.483 6.358-9.33 2.92-4.442 5.721-9.086 8.642-13.67z" transform="translate(815 430)"/>
                    <path fill="url(#px1gvdqn4aG)" d="M192.064 195.479c4.796.748 16.875-18.427 14.67-23.301-.344-.81-1.113-.89-2.246-.263-7.021 4.41-16.733 22.896-12.424 23.564z" transform="translate(815 430)"/>
                    <path fill="url(#wfdrs39duaH)" d="M222.284 182.198c5.068 2.657 16.656-12.85 15.655-20.999-.266-2.28-1.615-3.172-3.679-2.459-8.768 3.689-16.37 21.177-11.976 23.458z" transform="translate(815 430)"/>
                    <path fill="url(#ehppulituaI)" d="M132.119 257.5c2.738-2.284 14.127-20.275 14.881-23-.298.14-.298.14-.774.801-1.547 2.124-13.71 20.356-14.226 22.159l.119.04z" transform="translate(815 430)"/>
                    <path fill="url(#tayj4lp4gaJ)" d="M258.524 171.702c4.966 4.044 16.082-8.088 16.464-18.199.181-4.307-1.769-6.612-4.965-5.864-9.287 2.932-16.223 20.14-11.499 24.063z" transform="translate(815 430)"/>
                    <path fill="url(#vrf5u78rzaK)" d="M205.896 188.277c4.348 2.372 16.142-14.794 15.03-21.931-.377-2.293-1.985-1.994-2.958-1.495-7.803 4.166-15.666 21.492-12.072 23.426z" transform="translate(815 430)"/>
                    <path fill="url(#y6t527atlaL)" d="M239.609 177.12c5.572 2.987 16.817-12.341 15.241-20.772-.05-.959-.557-1.835-1.363-2.36-.805-.524-1.814-.633-2.713-.293-9.157 3.321-16.03 20.89-11.165 23.425z" transform="translate(815 430)"/>
                    <path fill="url(#ydly11zv4aM)" d="M55 372.5l-1.773 2.579L41 393.5c.346-.45 2.996-4.094 6.521-9.456 3.281-4.871 6.114-9.374 7.479-11.544z" transform="translate(815 430)"/>
                    <path fill="url(#pjdpmhxjmaN)" d="M72.614 347.4c3.043-4.476 5.843-9.117 8.386-13.9-.259.2-.259.2-1.056 1.366-3.386 5.062-6.693 10.164-9.96 15.246l-.299.462c-1.328 1.91-2.558 3.888-3.685 5.926.936-.542 6.554-9 6.614-9.1z" transform="translate(815 430)"/>
                    <path fill="url(#3ha9swlciaO)" d="M56 370.5l-3 5 1.662-2.647c.44-.777.88-1.576 1.338-2.353z" transform="translate(815 430)"/>
                    <path fill="url(#z4ms0km58aP)" d="M127.22 263.17l-.44.66.36-.52c.019-.05.046-.098.08-.14z" transform="translate(815 430)"/>
                    <path fill="url(#lzxxpavdkaQ)" d="M25.119 419.5c2.778-2.364 14.048-20.035 14.881-23-.298.16-.298.16-.774.821C37.68 399.465 25.556 417.697 25 419.5h.119z" transform="translate(815 430)"/>
                    <path fill="url(#bcygfc1vcaR)" d="M89.131 320.965c2.657-3.809 5.233-7.656 7.869-11.465l-14 20 .204-.293c2.024-2.754 3.884-5.488 5.927-8.242z" transform="translate(815 430)"/>
                    <path fill="url(#njx5wxkzfaS)" d="M135 251.5l-8 12c1.08-1.596 2.16-3.192 3.22-4.788L135 251.5z" transform="translate(815 430)"/>
                    <path fill="url(#g2qpv9k06aT)" d="M113.068 284.85c.298-.442.696-1.024.974-1.465 4.994-7.647 7.74-12.484 7.958-12.885-.179.2-.179.2-13.29 20.17l-.755 1.144v.18c-.617.944-.856 1.305-.955 1.506 2.181-2.767 4.207-5.655 6.068-8.65z" transform="translate(815 430)"/>
                    <path fill="url(#y1z12iuu2aU)" d="M322 160.85c5.584 5.517 16.97-3.686 17.948-14.486.479-5.656-2.393-9.362-6.84-8.81-10.35 1.932-16.512 17.954-11.108 23.295z" transform="translate(815 430)"/>
                    <path fill="url(#7v07f5jxaaV)" d="M277.913 167.58c5.641 4.367 17.128-7.687 17.087-17.91 0-4.366-2.269-6.78-5.743-6.036-10.015 2.475-16.74 19.76-11.344 23.947z" transform="translate(815 430)"/>
                    <path fill="url(#xhr3bevntaW)" d="M505.265 148.211c6.193 7.653 19.92 1.033 21.586-10.426 1.036-7.126-3.432-12.632-9.991-12.268-11.616 1.276-17.363 15.568-11.595 22.694z" transform="translate(815 430)"/>
                    <path fill="url(#5x1mekad1aX)" d="M369.141 155.94c5.886 6.895 18.394-1.092 19.764-12.596.735-6.49-2.862-11.242-8.175-10.818-11.16 1.557-17.23 16.883-11.589 23.414z" transform="translate(815 430)"/>
                    <path fill="url(#smmwx82xmaY)" d="M345.402 158.7c6.064 5.862 17.949-3.522 18.575-14.799.324-5.903-2.87-9.831-7.6-9.363-10.975 1.811-17.04 18.462-10.975 24.162z" transform="translate(815 430)"/>
                    <path fill="url(#zy93gwej9aZ)" d="M22.97 420.836L27 414.5 20 425.5 20.416 424.851z" transform="translate(815 430)"/>
                    <path fill="url(#inia3lk25ba)" d="M300.21 164.502c5.914 4.538 17.249-7.285 16.776-17.575-.197-4.419-2.622-6.907-6.15-6.35-10.212 2.29-16.382 19.526-10.626 23.925z" transform="translate(815 430)"/>
                    <path fill="url(#987wns8ntbb)" d="M397.699 155.79s.159-.869.238-1.333c0 .242-.119.606-.238 1.332 8.244 3.675 18.957-7.591 17.086-17.969-.47-4.331-4.192-7.538-8.484-7.308-1.445.11-2.854.515-4.142 1.19-9.817 5.452-12.426 19.848-4.46 24.087z" transform="translate(815 430)"/>
                    <path fill="url(#mpjg3lom7bc)" d="M449.074 149.946c5.892 7.963 19.17 1.632 20.78-9.955 1.002-7.147-3.26-12.741-9.506-12.482-11.039 1.274-16.676 15.21-11.274 22.437z" transform="translate(815 430)"/>
                    <path fill="url(#9wb9d1xacbd)" d="M477.283 149.066c6.218 7.815 19.93 1.37 21.57-10.07 1.033-7.149-3.484-12.768-10.026-12.486-11.605 1.027-17.337 15.306-11.544 22.556z" transform="translate(815 430)"/>
                    <path fill="url(#1rvskap1obe)" d="M421.567 152.795c6.604 7.073 19.57-.681 20.397-12.202.465-6.512-3.635-11.38-9.35-11.08-11.693 1.262-17.247 16.55-11.047 23.282z" transform="translate(815 430)"/>
                    <path fill="url(#ntjgvaxmzbf)" d="M371.892 350.53c-1.572.088-3.11.487-4.528 1.174-10.673 5.446-12.755 19.86-3.477 24.132 9.177 3.543 20.214-7.754 17.768-18.058-.986-4.522-5.157-7.618-9.763-7.248z" transform="translate(815 430)"/>
                    <path fill="url(#9bidt17o0bg)" d="M210.313 360.536c-10.992 1.708-16.942 17.763-10.911 23.278 6.03 5.515 17.99-3.356 18.576-14.21.323-5.712-2.905-9.52-7.665-9.068z" transform="translate(815 430)"/>
                    <path fill="url(#lrqgp34xabh)" d="M87.181 383.737c-8.874 3.622-16.283 21.117-11.866 23.453 5.17 2.691 16.71-12.785 15.612-20.96-.245-2.295-1.608-3.205-3.746-2.493z" transform="translate(815 430)"/>
                    <path fill="url(#yxivdufakbi)" d="M70.907 389.794C63 393.797 55.254 411.267 58.95 413.268c4.446 2.422 16.186-14.789 14.96-21.913-.394-2.321-2.055-1.961-3.003-1.56z" transform="translate(815 430)"/>
                    <path fill="url(#eoclpnw91bj)" d="M104.673 377.711c-9.206 3.394-15.944 21.56-11.008 24.386 5.66 3.129 16.865-12.701 15.16-21.44-.003-1.041-.5-2.015-1.33-2.603-.83-.589-1.884-.717-2.822-.343z" transform="translate(815 430)"/>
                    <path fill="url(#aprh9404mbk)" d="M122.935 372.64c-9.325 2.82-16.153 20.107-11.361 24.083 4.792 3.977 15.973-8.116 16.412-18.16.2-4.341-1.797-6.675-5.051-5.924z" transform="translate(815 430)"/>
                    <path fill="url(#2y1yuzzxgbl)" d="M58.72 397.174c-.383-.788-1.169-.889-2.317-.283-7.073 4.346-16.725 22.858-12.272 23.585 4.857.789 16.846-18.37 14.59-23.302z" transform="translate(815 430)"/>
                    <path fill="url(#honafm83nbm)" d="M22.988 423.275c-3.269 3.857-14.71 21.092-13.952 22.225 2.133-.12 15.945-21.39 14.909-23-.16.02-.3.04-.957.775z" transform="translate(815 430)"/>
                    <path fill="url(#xmbqh0jksbn)" d="M45.714 403.727c-.388-.53-1.222 0-1.688.266-6.054 4.717-15.756 23.217-12.302 23.503 3.978.327 16.3-20.542 13.99-23.769z" transform="translate(815 430)"/>
                    <path fill="url(#gb0z90ai5bo)" d="M32.518 413.067c-5.321 4.941-15.628 22.551-13.136 22.432 3.205-.177 15.965-20.278 14.502-22.887-.218-.316-.87.1-1.366.455z" transform="translate(815 430)"/>
                    <path fill="url(#dml2p6kc0bp)" d="M314.9 353.511c-11.545 1.098-17.378 15.249-11.708 22.434 6.242 7.983 20.01 1.596 21.662-9.98 1.02-7.085-3.426-12.753-9.954-12.454z" transform="translate(815 430)"/>
                    <path fill="url(#0yk94z0ycbq)" d="M287.597 354.511c-11.7 1.282-17.28 16.544-10.958 23.293 6.623 7.05 19.549-.68 20.331-12.177.422-6.509-3.693-11.396-9.373-11.116z" transform="translate(815 430)"/>
                    <path fill="url(#d41wu6ah5br)" d="M234.595 357.524c-11.047 1.517-17.08 16.847-11.455 23.4 5.932 6.917 18.487-1.052 19.771-12.56.713-6.492-2.935-11.244-8.316-10.84z" transform="translate(815 430)"/>
                    <path fill="url(#0e6y7zxl0bs)" d="M260.297 355.517c-11.139 1.388-16.806 16.678-10.96 23.337 6.16 7 18.602-.845 19.61-12.353.552-6.498-3.24-11.326-8.65-10.984z" transform="translate(815 430)"/>
                    <path fill="url(#g92au7mkybt)" d="M342.838 352.51c-11.618 1.127-17.346 15.368-11.557 22.59 6.214 7.765 19.937 1.307 21.576-10.058 1.012-7.221-3.46-12.813-10.019-12.532z" transform="translate(815 430)"/>
                    <path fill="url(#cughmcnq4bu)" d="M143.188 369.6c-10.158 2.519-16.66 19.696-11.215 23.996 5.445 4.299 17.148-7.58 17.026-17.758-.02-4.38-2.316-6.879-5.81-6.239z" transform="translate(815 430)"/>
                    <path fill="url(#t5d42e12kbv)" d="M164.77 365.56c-9.777 2.152-15.957 18.246-11.048 23.444 4.908 5.199 15.997-3.983 17.19-14.76.606-5.656-1.956-9.261-6.141-8.683z" transform="translate(815 430)"/>
                    <path fill="url(#z9np6k5p0bw)" d="M113.936 330.435c.454-4.491-1.618-4.19-2.901-3.61-.869.442-3.513 1.785-7.895 8.361-2.31 3.088-7.204 13.474-4.184 15.118 3.572 1.904 13.678-10.446 14.98-19.87z" transform="translate(815 430)"/>
                    <path fill="url(#bvwsrk6x6bx)" d="M187.048 362.55c-10.381 1.976-16.467 17.98-10.998 23.354 5.47 5.374 17.024-3.675 17.899-14.482.477-5.67-2.426-9.405-6.901-8.871z" transform="translate(815 430)"/>
                    <path fill="url(#m5dpsm8p6by)" d="M15 432.5c-.16.18-.16.18-14.243 21.614v.14c-.259.422-.538.804-.757 1.246.637-.562 4.183-5.705 6.514-9.2 4.343-6.669 8.008-12.856 8.486-13.8z" transform="translate(815 430)"/>
                    <path fill="url(#y5yninfmgbz)" d="M352.059 314.725c6.574-2.457 11.93-11.107 9.223-19.018-1.248-3.88-4.904-6.422-8.91-6.193-4.492.444-8.501 3.06-10.772 7.032-6.534 10.668.098 22.055 10.459 18.18z" transform="translate(815 430)"/>
                    <path fill="url(#y40jcik3sbA)" d="M336.26 343.035c6.219 7.823 19.952 1.5 21.592-10.003 1.033-7.143-3.463-12.765-10.127-12.525-11.485 1.1-17.217 15.306-11.464 22.528z" transform="translate(815 430)"/>
                    <path fill="url(#ivfk90jh4bB)" d="M367.91 344.79c9.186 3.667 20.187-7.557 17.745-17.895-.972-4.538-5.132-7.677-9.77-7.375-1.574.09-3.116.48-4.543 1.149-10.678 5.34-12.717 19.788-3.431 24.12z" transform="translate(815 430)"/>
                    <path fill="url(#zovoupyaybC)" d="M308.715 344.777c6.687 7.082 19.584-.6 20.259-12.124.397-6.522-3.79-11.403-9.485-11.143-11.707 1.22-17.183 16.505-10.774 23.267z" transform="translate(815 430)"/>
                    <path fill="url(#j2r1n2q4xbD)" d="M281.524 346.828c6.518 7.028 19.513-.763 20.432-12.269.511-6.506-3.514-11.365-9.194-11.044-11.626 1.325-17.45 16.626-11.238 23.313z" transform="translate(815 430)"/>
                    <path fill="url(#y1zkrnp14bE)" d="M323.792 315.698c6.617-2.516 12.104-11.23 9.583-19.139-1.128-3.81-4.764-6.322-8.736-6.037-4.547.52-8.575 3.164-10.853 7.124-6.718 10.666-.464 21.996 10.006 18.052z" transform="translate(815 430)"/>
                    <path fill="url(#8q8fs8m2qbF)" d="M408.728 311.64c6.82-2.617 12.347-11.316 9.513-19.069-1.383-3.896-5.232-6.377-9.372-6.04-4.692.461-8.885 3.115-11.294 7.148-6.639 10.692.445 22.07 11.153 17.961z" transform="translate(815 430)"/>
                    <path fill="url(#dyii9xzlebG)" d="M296.923 316.659c6.354-2.556 11.811-11.27 9.56-19.097-.857-3.775-4.324-6.345-8.146-6.037-4.142.443-7.568 2.797-10.516 7.204-6.553 10.806-.936 21.955 9.102 17.93z" transform="translate(815 430)"/>
                    <path fill="url(#mrwmvlyiibH)" d="M87.076 378.24c4.659 2.565 16.276-14.534 14.794-21.771-.054-.742-.484-1.4-1.133-1.737-.65-.338-1.424-.305-2.044.086-8.089 3.877-15.535 21.295-11.617 23.422z" transform="translate(815 430)"/>
                    <path fill="url(#p2occszdibI)" d="M121.906 368.074c5.866 3.092 17.086-11.351 16.024-20.607-.348-3.051-2.044-4.475-4.722-3.804-9.851 3.174-16.718 21.482-11.302 24.411z" transform="translate(815 430)"/>
                    <path fill="url(#m9qjmsjjnbJ)" d="M166.99 314.34c-.443-5.015-3.306-5.096-4.959-4.69-1.13.325-4.597 1.32-8.992 7.94-6.05 9.664-5.162 18.923 1.713 16.527 6.19-2.172 12.521-12.345 12.239-19.776z" transform="translate(815 430)"/>
                    <path fill="url(#rtn3pl8z0bK)" d="M176.56 329.834c6.398-2.676 12.06-12.234 11.385-19.276-.715-5.11-3.843-5.292-5.642-4.95-3.332.785-6.418 3.32-9.423 7.727-6.582 10.161-4.416 19.82 3.68 16.5z" transform="translate(815 430)"/>
                    <path fill="url(#wzzp9chxpbL)" d="M136.031 338.064c5.71-2.283 11.773-12.123 11.969-19.13-.157-4.723-2.708-4.684-4.218-4.25-1.02.354-4.14 1.436-8.437 7.872-6.083 9.505-5.71 17.987.686 15.508z" transform="translate(815 430)"/>
                    <path fill="url(#24nwhjbz5bM)" d="M141.656 363.625c5.191 4.25 16.206-7.837 16.344-17.97 0-4.352-1.974-6.709-5.25-6.044-9.357 2.72-15.99 19.945-11.094 24.014z" transform="translate(815 430)"/>
                    <path fill="url(#k5wqd5wwjbN)" d="M255.22 347.898c6.038 6.945 18.556-.968 19.703-12.475.664-6.5-3.039-11.285-8.453-10.901-11.089 1.453-16.965 16.775-11.25 23.376z" transform="translate(815 430)"/>
                    <path fill="url(#0w7z7ce4zbO)" d="M129.992 324.702c.163-4.608-2.24-4.45-3.686-3.973-.977.398-4.073 1.61-8.43 8.125-5.987 9.059-6.578 17.124-1.12 15.416 5.457-1.709 12.707-12.337 13.236-19.568z" transform="translate(815 430)"/>
                    <path fill="url(#j9xycu4udbP)" d="M103.498 372.16c5.378 2.818 16.732-12.554 15.393-20.85-.36-2.306-1.8-3.272-3.998-2.602-8.896 3.489-16.133 20.988-11.395 23.452z" transform="translate(815 430)"/>
                    <path fill="url(#j3xl6eoakbQ)" d="M230.497 350.656c6.283 5.929 18.034-3.37 18.49-14.64.24-5.929-3.061-9.929-7.833-9.482-11.035 1.706-16.781 18.315-10.657 24.122z" transform="translate(815 430)"/>
                    <path fill="url(#3o8rpxw76bR)" d="M255.705 302.058c-1.488-5.286-5.237-5.718-7.356-5.522-3.872.55-7.234 2.908-10.188 7.211-6.398 9.824-2.506 20.12 6.5 17.27 7.213-2.298 12.694-11.69 11.044-18.96z" transform="translate(815 430)"/>
                    <path fill="url(#ix71jllsdbS)" d="M162.087 359.545c5.81 4.436 17.188-7.452 16.908-17.682-.12-4.416-2.464-6.873-6.01-6.274-10.116 2.418-16.507 19.66-10.898 23.956z" transform="translate(815 430)"/>
                    <path fill="url(#iwn7je5ktbT)" d="M271.055 318.615c6.098-2.636 11.47-11.395 9.549-19.201-1.667-5.535-5.47-6.083-7.569-5.88-3.921.507-7.215 2.9-10.117 7.34-6.53 10.766-1.353 21.877 8.137 17.74z" transform="translate(815 430)"/>
                    <path fill="url(#iz4p20fpzbU)" d="M207.15 352.806c5.743 5.58 17.07-3.517 17.815-14.323.392-5.678-2.587-9.431-7.075-8.94-10.426 1.847-16.325 17.88-10.74 23.263z" transform="translate(815 430)"/>
                    <path fill="url(#ko1nph6ohbV)" d="M198.012 325.884c6.455-2.53 11.809-11.956 10.884-19.15-.965-5.16-4.173-5.44-6.023-5.16-1.24.258-5.058 1.036-9.369 7.532-6.317 10.103-3.66 19.986 4.508 16.778z" transform="translate(815 430)"/>
                    <path fill="url(#2tm6xoqambW)" d="M231.792 303.91c-1.217-5.22-4.69-5.595-6.666-5.358-3.632.613-6.825 3.025-9.759 7.354-6.406 10.061-3.173 20.084 5.489 17.04 6.825-2.491 12.293-11.822 10.936-19.037z" transform="translate(815 430)"/>
                    <path fill="url(#k83u3n7bobX)" d="M182.898 355.902c5.482 5.424 16.932-3.84 18.029-14.61.568-5.641-2.213-9.323-6.64-8.73-10.313 2.04-16.668 18.094-11.39 23.34z" transform="translate(815 430)"/>
                    <path fill="url(#9b1uxahdobY)" d="M390.663 296.11c-.113-.483-.255-.957-.424-1.423l-7.37.32 7.37-.32c-1.384-3.91-5.22-6.43-9.388-6.168-1.57.085-3.11.459-4.543 1.101-2.773 1.326-5.106 3.411-6.724 6.009-3.937 6.288-3.776 14.8 3.291 18.185 9.066 3.565 20.211-7.43 17.788-17.705z" transform="translate(815 430)"/>
                    <path fill="url(#4nsw2ei4fbZ)" d="M550.843 165.925c-1.747 11.21-14.7 17.787-20.707 10.523-5.496-6.636.098-20.398 11.227-21.91 6.28-.53 10.52 4.535 9.48 11.387z" transform="translate(815 430)"/>
                    <path fill="url(#o5lshetcjca)" d="M536.425 185.55c8.695-.83 12.509 8.673 7.015 17.524-6.046 8.969-16.42 10.038-19.76 1.98-2.688-7.326 2.806-18.018 12.745-19.503z" transform="translate(815 430)"/>
                    <path fill="url(#rahm6to14cb)" d="M564.563 182.574c8.665-1 12.358 8.355 6.808 17.27-6.109 9.056-16.43 10.335-19.745 2.46-2.575-7.297 2.995-18.051 12.937-19.73z" transform="translate(815 430)"/>
                    <path fill="url(#x7sq1b14tcc)" d="M591.72 178.604c8.644-1.192 12.175 8.078 6.574 16.983-6.189 9.148-16.518 10.683-19.724 2.929-2.456-7.17 3.226-17.994 13.15-19.912z" transform="translate(815 430)"/>
                    <path fill="url(#9j509fjpxcd)" d="M507.93 187.533c9.086-.669 13.13 8.965 7.453 17.694-6.248 8.926-17.07 9.83-20.663 1.632-2.818-7.412 2.858-18.048 13.21-19.326z" transform="translate(815 430)"/>
                    <path fill="url(#x417a68vtce)" d="M522.854 168.682c-1.69 11.427-15.414 18.177-21.604 10.614-5.743-7.056 0-21.39 11.647-22.773 6.557-.427 10.975 5.043 9.957 12.16z" transform="translate(815 430)"/>
                    <path fill="url(#rm6wq1r1hcf)" d="M618.282 174.646c8.237-1.407 11.489 7.625 6.01 16.658-6.01 9.237-15.764 11.052-18.78 3.467-2.285-7.076 3.272-17.964 12.77-20.125z" transform="translate(815 430)"/>
                    <path fill="url(#n8hef3kh0cg)" d="M578.966 161.47c-.751 10.869-13.557 19.075-20.138 12.915-6.58-6.159-1.126-20.982 10.672-22.83 5.83-.595 9.92 3.657 9.466 9.915z" transform="translate(815 430)"/>
                    <path fill="url(#lrmlg3rbych)" d="M464.25 243.31c-5.743-7.031 0-21.378 11.65-22.784 6.538-.448 11.019 4.972 9.94 12.105-1.691 11.432-15.419 18.239-21.59 10.678z" transform="translate(815 430)"/>
                    <path fill="url(#bsji1rqg8ci)" d="M526.602 246.577c5.825-.701 9.855 3.464 9.356 9.693-.838 10.814-13.666 19.225-20.19 13.237-6.523-5.988-.957-20.867 10.834-22.93z" transform="translate(815 430)"/>
                    <path fill="url(#9cfy3hwj0cj)" d="M548.707 235.508c-6.427-5.855-.863-20.772 10.927-22.917 5.845-.762 9.842 3.348 9.32 9.564-.904 10.847-13.779 19.368-20.247 13.353z" transform="translate(815 430)"/>
                    <path fill="url(#2yn7hm1kack)" d="M520.786 238.416c-6.502-5.972-1.09-20.962 10.706-22.853 5.848-.637 9.912 3.603 9.476 9.953-.793 10.77-13.62 19.011-20.182 12.9z" transform="translate(815 430)"/>
                    <path fill="url(#2jihf6zwjcl)" d="M553.714 242.658c2.365-.485 4.822.161 6.64 1.747 1.82 1.586 2.791 3.929 2.628 6.334 0 11.193-13.457 21.032-20.337 14.85-6.355-5.718-.709-20.688 11.069-22.931z" transform="translate(815 430)"/>
                    <path fill="url(#jd8zwgd2ncm)" d="M498.463 249.552c5.911-.577 9.852 3.718 9.517 9.94-.749 10.896-13.537 19.068-20.139 12.865-6.6-6.204-1.143-20.996 10.622-22.805z" transform="translate(815 430)"/>
                    <path fill="url(#vq3z5fdktcn)" d="M470.357 251.534c6.272-.51 10.526 4.811 9.487 11.886-1.706 11.662-14.682 18.472-20.7 10.867-5.507-6.911.08-21.224 11.213-22.753z" transform="translate(815 430)"/>
                    <path fill="url(#wqb6vcz6qco)" d="M492.116 240.476c-5.465-6.605.138-20.385 11.265-21.938 6.271-.53 10.518 4.56 9.456 11.362-1.67 11.186-14.705 17.81-20.72 10.576z" transform="translate(815 430)"/>
                    <path fill="url(#liu6wzq04cp)" d="M575.603 231.649c-6.31-5.635-.59-20.54 11.176-22.964 2.373-.533 4.86.1 6.68 1.702 1.82 1.602 2.751 3.976 2.5 6.377-.04 11.047-13.537 20.964-20.356 14.885z" transform="translate(815 430)"/>
                    <path fill="url(#01stiqs46cq)" d="M409.844 360.51c-1.774 11.673-15.292 18.335-21.592 10.777-5.75-6.967 0-21.269 11.683-22.756 6.524-.49 10.969 4.89 9.909 11.979z" transform="translate(815 430)"/>
                    <path fill="url(#uqgqlr51pcr)" d="M437.83 357.819c-1.776 11.172-14.759 17.883-20.718 10.718-5.465-6.553.158-20.351 11.306-21.99 6.275-.592 10.497 4.422 9.412 11.272z" transform="translate(815 430)"/>
                    <path fill="url(#frfx6h4lzcs)" d="M461.48 313.555c5.933-.596 9.888 3.676 9.493 9.935-.752 10.849-13.567 19.055-20.153 12.895-6.586-6.16-1.068-20.962 10.66-22.83z" transform="translate(815 430)"/>
                    <path fill="url(#mmwvl8lkjct)" d="M491.82 303.874c-9.796 3.285-15.41-6.948-9.238-16.843 2.37-3.965 6.37-6.683 10.93-7.426 3.818-.62 7.54 1.55 8.88 5.177 2.609 7.485-3.603 16.763-10.572 19.092z" transform="translate(815 430)"/>
                    <path fill="url(#norpt8ndvcu)" d="M404.887 317.523c6.544-.424 11.015 4.996 9.958 12.134-1.747 11.65-15.242 18.202-21.582 10.537-5.772-7.058 0-21.316 11.624-22.67z" transform="translate(815 430)"/>
                    <path fill="url(#5sgrcgsv0cv)" d="M519.654 300.782c-9.787 3.516-15.244-6.509-8.981-16.514 2.396-3.997 6.403-6.772 10.995-7.614 3.734-.755 7.46 1.33 8.76 4.902 2.538 7.373-3.786 16.735-10.774 19.226z" transform="translate(815 430)"/>
                    <path fill="url(#a6c8g2j86cw)" d="M437.683 309.563c-10.721 4.29-17.76-6.934-11.067-17.69 2.416-4.065 6.591-6.772 11.29-7.32 4.082-.447 7.943 1.944 9.358 5.795 2.787 7.686-2.766 16.53-9.581 19.215z" transform="translate(815 430)"/>
                    <path fill="url(#i72kiewr6cx)" d="M455.553 289.809c2.344-3.939 6.34-6.599 10.868-7.235 3.858-.518 7.557 1.719 8.903 5.382 2.614 7.293-2.751 15.77-9.276 18.549-10.298 4.337-16.96-6.288-10.495-16.696z" transform="translate(815 430)"/>
                    <path fill="url(#qgbq4sgfacy)" d="M433.38 316.535c6.26-.511 10.518 4.62 9.458 11.443-1.727 11.187-14.678 17.695-20.703 10.499-5.494-6.626.098-20.408 11.245-21.942z" transform="translate(815 430)"/>
                    <path fill="url(#c06i7n0b5cz)" d="M621.349 143.831c-11.674 2-17.16 16.839-10.773 22.659 6.388 5.82 19.163-2.48 20.024-13.14.5-6.14-3.464-10.239-9.251-9.519zM847.84 97.334c-6.688 4.88-12.675 14.8-12.895 19.499-.22 4.7 5.847.16 10.953-6.9.52-.72 1.021-1.44 1.522-2.18 1.401-1.84 6.788-11.379 3.364-11.639-1.078.116-2.1.54-2.944 1.22zm-29.455-3.56c-9.592 4.86-16.02 19.459-11.394 21.999 5.146 2.68 17.882-12.18 17.04-19.859-.3-2.92-2.462-3.7-5.646-2.24v.1zm-21.606 9.04c-10.012 4.46-16.32 19.258-11.154 22.098 5.707 3.14 18.663-11.519 17.341-19.599-.48-2.86-2.783-3.82-6.187-2.5zM730.7 165.45c2.003 6.4 10.553 3.54 16.68-5.58 5.627-8.84 3.605-16.279-3.824-13.999-8.57 3.22-14.337 13.6-12.896 19.579h.04zm58.07-36.138c-7.85 3.76-13.736 14-12.875 19.499 1.281 5.74 9.09 2.2 15.178-6.88 1.302-1.5 6.007-10.8 2.002-12.939-1.452-.591-3.1-.466-4.445.34l.14-.02zm-14.617-18.279c-10.473 4-16.5 19.079-10.934 22.299 5.868 3.4 18.463-9.78 17.742-18.52-.32-3.479-3.004-5.059-6.808-3.779zm-20.445 46.537c1.642 6 9.852 2.9 16.02-6.2 1.32-1.5 6.007-10.879 1.521-13.359-1.464-.692-3.161-.692-4.625 0-8.25 3.5-14.077 13.84-12.916 19.56zm108.55-85.514c-.82-1.34-2.943-.3-4.124.44-9.772 6.56-15.6 21.038-11.514 21.578 5.046.64 18.222-17.879 15.639-22.018zm-32.919 36.877c-7.008 4.44-13.036 14.6-12.876 19.499.501 5.08 7.29.88 13.437-8.32 1.441-1.8 6.668-11.499 2.703-12.159-1.164-.025-2.307.318-3.264.98zm-180.958 31.198c-11.513 2.32-17.06 16.98-10.873 22.539 6.688 6 19.884-3.66 19.884-14.6.206-2.358-.722-4.673-2.5-6.24-1.777-1.566-4.193-2.196-6.51-1.699zm161.194-20.518c-7.449 4-13.396 14.319-12.875 19.498.92 5.48 8.17 1.64 14.337-7.58 1.281-1.52 6.147-10.718 2.563-12.498-1.359-.444-2.847-.23-4.025.58zm34.141-35.658c-.62-1.54-2.383-1.68-4.846-.38-9.651 5.62-16.3 20.779-11.173 21.858 5.487 1.14 18.222-15.919 16.02-21.478zM656.371 184.189c2.743 7.12 12.395 5.1 18.442-3.86 5.507-8.76 2.483-17.26-5.587-15.66-9.35 2.32-14.978 12.86-12.855 19.52zm44.433-53.457c-10.993 2.9-16.76 17.299-11.073 22.299 6.107 5.38 18.943-4.72 19.343-15.2.2-5.16-3.284-8.159-8.27-7.1zm-25.93 5.04c-11.254 2.6-16.901 17.139-10.934 22.438 6.408 5.7 19.423-4.18 19.604-14.899.275-2.283-.6-4.553-2.336-6.063-1.736-1.51-4.109-2.063-6.335-1.476zm75.63-17.36c-10.873 3.7-16.7 18.88-10.733 22.48 6.308 3.779 19.123-9.18 18.022-18.28-.42-3.7-3.284-5.28-7.289-4.2zm-68.602 60.297c2.563 7 11.774 4.74 17.921-4.4 5.507-8.74 2.764-16.939-5.066-15.119-9.11 2.6-14.718 13.08-12.855 19.519zm24.79-6.22c2.282 6.7 11.193 4.14 17.32-4.98 5.647-8.879 3.264-16.638-4.465-14.538-8.83 2.86-14.558 13.299-12.856 19.518zm19.403-47.537c-11.234 3.36-16.88 18.72-10.573 22.659 6.308 3.94 18.763-7.5 18.402-17.04-.22-4.399-3.444-6.719-7.83-5.619zm62.455 88.755l14.958-22.559c-1.048.69-1.986 1.532-2.783 2.5-7.33 8.24-13.577 19.479-12.215 20.059h.04zm36.624-70.876c4.005 0 17.1-18.839 15.479-22.138-.561-1.12-2.463 0-3.545.9-9.05 7.199-15.438 21.258-11.974 21.238h.04zm-65.359 61.056c5.647 1.24 18.382-15.779 16.02-21.418-.661-1.56-2.503-1.72-4.946-.48-9.772 5.52-16.36 20.738-11.114 21.898h.04zm25.851-46.457c-.28-2.68-2.402-3.44-5.546-2-9.512 4.94-16.02 19.5-11.434 21.859 4.986 2.64 17.681-12.24 16.94-19.859h.04zm19.464-11.999c-.6-1.52-2.323-1.64-4.746-.32-9.551 5.7-16.26 20.819-11.233 21.799 5.346 1.14 18.041-15.94 15.939-21.399l.04-.08zm18.322-12c-.781-1.3-2.864-.24-4.005.52-9.652 6.64-15.579 21.06-11.574 21.52 4.846.54 17.982-18.02 15.539-22.14l.04.1zm-44.434 59.337c5.207.74 18.383-17.739 15.66-21.999-.862-1.36-3.024-.36-4.226.36-9.952 6.44-15.679 21-11.474 21.619l.04.02zm-61.754 30.218c5.807 3.24 18.823-11.38 17.401-19.539-.5-2.88-2.923-3.88-6.307-2.6-10.273 4.36-16.28 19.2-11.134 22.12l.04.02zm21.606-9.14c5.267 2.78 18.022-11.999 17.1-19.818-.34-2.72-2.542-3.54-5.766-2.12-9.732 4.76-16.1 19.419-11.374 21.919l.04.02zm25.931-46.636c-.44-2.82-2.763-3.74-6.007-2.4-10.012 4.52-16.28 19.279-11.193 21.998 5.466 3.1 18.402-11.479 17.16-19.618l.04.02zm-21.846 9.659c-.28-3.54-2.903-4.98-6.708-3.68-10.412 4.16-16.48 19.12-10.993 22.279 5.486 3.16 18.302-9.92 17.661-18.619l.04.02zm113.296-70.216c-.16-.16-.8-.34-2.883 1.52-8.33 7.82-15.218 21.439-12.315 20.959 3.344-.58 17-20.739 15.198-22.479zm11.374-23.638c-.985.244-1.889.74-2.623 1.44-6.188 5.28-12.255 15.119-12.896 19.499-.32 3.42 2.904.86 5.767-2.36 2.051-2.38 3.944-4.893 5.667-7.52 1.382-1.9 6.928-11.24 4.065-11.06h.02zm-39.047 61.836c-.2-.2-.901-.44-3.064 1.36-8.61 7.58-15.298 21.379-12.174 21.059 3.644-.36 17.32-20.48 15.218-22.419h.02zm67.06-99.154c-.2-.18-.86-.38-2.983 1.46-8.45 7.68-15.258 21.399-12.235 20.999 3.485-.48 17.141-20.619 15.199-22.459h.02zm-15.898 13.84c-.601-1.16-2.523 0-3.625.82-9.15 7.099-15.438 21.218-11.874 21.298 4.305.1 17.36-18.519 15.479-22.119h.02zm-82.86 121.012c4.485.2 17.541-18.38 15.519-21.999-.641-1.18-2.624 0-3.745.76-9.291 6.88-15.479 21.079-11.794 21.239h.02zm4.185 10.14c2.323.46 13.817-16 15.419-21.22 0 0 .48-1.42-.3-1.36-.943.36-1.787.935-2.464 1.68-3.022 3.036-5.708 6.388-8.01 10-1.842 2.42-6.347 10.56-4.665 10.9h.02zm-15.358 13.998c3.444-.12 14.457-14.999 15.518-20.978.32-2.82-2.002-1.34-3.504-.2-3.264 2.811-6.098 6.086-8.41 9.719-2.023 2.66-6.468 11.48-3.625 11.4l.02.06zm-91.11 26.579c6.007 3.46 18.602-9.66 17.801-18.48-.32-3.599-3.043-5.099-6.908-3.839-10.593 3.94-16.58 18.959-10.913 22.259l.02.06zm-23.588 7.38c6.387 3.859 19.243-9.08 18.021-18.2-.46-3.74-3.364-5.44-7.389-4.32-10.913 3.58-16.7 18.8-10.652 22.46l.02.06zm-25.11 5.999c5.846 5.08 18.502-5.18 19.082-15.48.28-5.059-3.043-7.999-8.01-6.719-10.712 3.16-16.56 17.46-11.093 22.219l.02-.02zm50.16-52.677c-.561-3.82-3.565-5.62-7.67-4.58-11.173 3.44-16.84 18.76-10.592 22.639 6.688 4.1 19.663-8.7 18.262-18.059zm23.848-7.14c-.4-3.68-3.244-5.3-7.208-4.14-10.813 3.78-16.66 18.94-10.773 22.46 6.287 3.72 19.063-9.3 18.041-18.32h-.06zm-125.29 70.596c6.468 5.76 19.523-4 19.663-14.839.252-2.294-.635-4.566-2.375-6.084-1.74-1.518-4.113-2.092-6.355-1.535-11.274 2.56-16.9 17.098-10.873 22.458h-.06zm76.852-55.096c.22-5.14-3.224-8-8.19-7.02-10.953 2.96-16.74 17.339-11.093 22.299 6.127 5.3 18.903-4.84 19.343-15.28h-.06zm-25.39 5.62c.1-5.26-3.505-8.4-8.59-7.46-11.234 2.66-16.901 17.159-10.974 22.398 6.428 5.66 19.484-4.26 19.624-14.939h-.06zm-25.531 44.456c6.187 5.44 19.063-4.62 19.403-15.139.18-5.18-3.344-8.2-8.35-7.18-11.013 2.84-16.74 17.24-10.993 22.32h-.06zm22.026-117.192c6.368 5.78 19.043-2.66 20.024-13.26.521-6-3.404-10.119-9.15-9.359-11.454 2.18-17.061 16.9-10.753 22.619h-.12zm-55.466 5.6c6.007 7.239 19.083.52 20.865-10.72 1.081-6.84-3.184-12-9.492-11.36-11.073 1.62-16.74 15.48-11.253 22.08h-.12zm-27.734 2.32c6.128 7.479 19.264.94 20.986-10.44 1.04-6.9-3.284-12.16-9.652-11.7-11.294 1.42-16.82 15.34-11.334 22.14zm110.133-12c6.568 5.9 19.703-3.88 19.764-14.72.227-2.325-.68-4.618-2.439-6.16-1.758-1.542-4.152-2.145-6.432-1.619-11.474 2.44-17.06 17.04-10.953 22.499h.06zm51.702-10.2c6.007 5.22 18.722-4.96 19.223-15.338.24-5.12-3.164-8-8.11-6.92-10.933 3.02-16.74 17.379-11.173 22.259h.06zm-25.53 5.46c6.307 5.56 19.242-4.4 19.503-15.019.14-5.24-3.444-8.34-8.51-7.38-11.214 2.74-16.9 17.22-11.054 22.4h.06zm-80.097 12.28c6.528 6 19.343-2.22 20.144-12.98.46-6.2-3.584-10.379-9.411-9.74-11.854 1.94-17.28 16.76-10.813 22.72h.08zm21.466 169.269c-10.673 4-16.6 18.999-10.833 22.379 5.767 3.38 18.742-9.54 17.861-18.42-.44-3.619-3.204-5.179-7.108-3.959h.08zM536.427 329.32c-11.354 2.5-16.96 17.058-10.893 22.478 6.528 5.82 19.623-4 19.723-14.759.24-2.317-.66-4.607-2.415-6.141-1.756-1.535-4.147-2.123-6.415-1.578zm-26.732 4c-11.574 2.22-17.1 16.898-10.813 22.578 6.788 6.14 20.024-3.46 20.024-14.48.141-2.38-.833-4.692-2.638-6.255-1.804-1.563-4.233-2.2-6.573-1.724v-.12zm78.474-14.28c-10.853 3.08-16.68 17.4-11.133 22.239 5.907 5.14 18.622-5.06 19.143-15.38.26-4.979-3.104-7.859-8.01-6.739v-.12zm24.81-6.2c-11.033 3.56-16.78 18.82-10.653 22.54 6.488 3.999 19.363-8.94 18.162-18.14-.52-3.64-3.444-5.38-7.51-4.28v-.12zm-130.497 24c-11.754 1.999-17.18 16.758-10.733 22.678 6.448 5.92 19.283-2.3 20.024-13.02.56-6.12-3.464-10.279-9.291-9.599v-.06zm80.096-12.28c-11.113 2.78-16.82 17.219-11.013 22.358 6.247 5.5 19.163-4.5 19.463-15.059.18-5.16-3.364-8.22-8.41-7.24l-.04-.06zM746.58 113.173c6.548 4 19.464-8.84 18.202-18.119-.52-3.78-3.504-5.54-7.569-4.48-11.093 3.52-16.8 18.76-10.633 22.599zm15.179 130.152c-.22-.2-.981-.48-3.164 1.3-8.77 7.44-15.339 21.318-12.015 21.118 3.745-.26 17.441-20.418 15.179-22.418zm-34.322 25.858c-.52-1.46-2.182-1.52-4.545-.14-10.012 6.32-15.679 20.979-11.354 21.679 5.126.82 17.762-16.299 15.9-21.559v.02zm48.058-35.678l.14-.28c1.742-3.32 2.003-4.68.681-4-.97.635-1.858 1.388-2.643 2.24-7.91 8.38-14.337 20.82-11.814 20.16 1.422-.38 5.066-5.18 5.106-5.24l8.53-12.88zm-30.176 23.2c-.7-1.24-2.723-.12-3.865.659-9.431 6.86-15.498 21.139-11.694 21.399 4.606.32 17.681-18.26 15.519-22.079l.04.02zm-37.245 23.518c-.66-1.58-2.563-1.78-5.046-.56-9.872 5.42-16.4 20.698-11.033 21.998 5.827 1.3 18.602-15.699 16.08-21.438zm-41.67 20.558c-.54-2.9-3.004-4-6.408-2.68-10.272 4.28-16.42 19.16-11.053 22.16 5.967 3.339 19.083-11.24 17.521-19.48h-.06zm15.639-11.459c-9.812 4.7-16.18 19.379-11.294 21.999 5.387 2.88 18.222-11.88 17.18-19.74-.3-2.759-2.562-3.619-5.886-2.259zm88.406-183.229c6.128 3.62 18.843-9.419 17.922-18.378-.4-3.64-3.184-5.24-7.109-4-10.653 3.84-16.56 18.959-10.733 22.398l-.08-.02zM503.948 326.4c6.427 5.88 19.163-2.46 20.024-13.12.5-6.16-3.484-10.239-9.271-9.519-11.674 2.08-17.141 16.82-10.753 22.639zm26.952-3.8c6.688 6 19.864-3.68 19.864-14.6.226-2.368-.693-4.702-2.473-6.282-1.78-1.58-4.21-2.219-6.538-1.717-11.514 2.38-17.06 17.02-10.853 22.599zm289.568-157.27c.24-.26.581-.6.821-.88l3.204-4.84c-1.822 2.4-2.283 3.04-4.025 5.72zm34.682-51.997l13.296-19.999-.32.32-.621.68c-6.087 7-11.394 15.94-12.355 18.999zm-14.918 19.439c-7.91 8.64-13.696 19.999-12.155 20.139.461 0 1.462-.96 1.462-.98l14.017-21.06c-.02-1.359-1.702.2-3.324 1.9zm54.586-79.235l14.918-22.499h-.18c-.912.687-1.744 1.471-2.484 2.34-7.148 8.16-13.536 19.599-12.254 20.159zm-12.175 15.459c-.976.665-1.864 1.451-2.643 2.34-5.827 6.22-11.134 14.899-12.255 18.838-.34 1.58.16 1.8 1.522.62 1.237-1.197 2.388-2.48 3.444-3.84l3.885-5.859 5.526-8.32.26-.48c.541-1.22 1.903-4.16.261-3.3zM821.29 164.39l-.82.88c-.621.94-1.883 2.88-3.144 5.08l3.964-5.96zm-63.476 77.375c4.345.1 17.4-18.499 15.499-21.999-.601-1.16-2.523 0-3.625.82-9.17 7-15.458 21.119-11.874 21.179zm16.2-13.48c3.524-.46 17.18-20.598 15.238-22.438-.2-.18-.861-.4-2.984 1.44-8.49 7.7-15.278 21.399-12.255 20.999zm133.38-197.747c2.383.48 16.34-19.539 15.539-22.298-.24-.88-1.903.5-2.864 1.4-7.61 7.379-14.658 20.498-12.675 20.898zM582.082 271.103c-1.228-3.42-4.83-5.373-8.37-4.54-4.47.985-8.336 3.762-10.693 7.68-6.148 9.84-1.021 19.419 8.45 15.759 6.748-2.68 12.955-11.84 10.613-18.899zM836.387 79.695c5.067 2.56 18.423-13.82 16.82-20.639-.5-2-2.482-2.54-5.326-1.18-9.29 5.04-15.879 19.46-11.413 21.82h-.08zm-42.931 18.519c5.667 3.22 18.182-10 17.621-18.639-.22-3.52-2.823-4.92-6.588-3.58-10.312 4.22-16.32 19.14-10.953 22.219h-.08zm63.196-29.098c5.246.94 17.901-16.16 16.02-21.519-.542-1.48-2.224-1.56-4.626-.2-10.213 6.22-15.8 20.939-11.394 21.719zM930 .5l-.36.48c-1.522 2.14-3.304 4.7-5.367 8.14L930 .5zm-54.946 56.836c4.766.44 17.881-18.118 15.579-21.998-.721-1.26-2.764-.16-4.005.6-9.431 6.72-15.459 21.058-11.574 21.398zm-90.589 139.392c0-3.06-2.623-1.78-4.185-.74-3.48 2.584-6.443 5.8-8.73 9.48-2.003 2.68-6.268 11.679-2.904 11.998 4.125.36 15.358-14.359 15.819-20.738zm107.61-152.23c4.004-.14 17.66-20.24 15.278-22.42-.24-.22-1.021-.52-3.244 1.24-8.87 7.32-15.359 21.28-12.035 21.18zm-76.513 44.836c5.487 2.96 18.362-11.759 17.221-19.698-.4-2.8-2.683-3.68-6.007-2.32-9.852 4.7-16.18 19.419-11.214 22.018zM608.914 307.581c6.388 4 18.762-7.5 18.402-17.02-.18-4.419-3.404-6.719-7.85-5.639-11.233 3.38-16.88 18.72-10.552 22.659zm24.51-47.117c-.497-1.545-1.6-2.824-3.056-3.543-1.456-.72-3.143-.82-4.674-.277-4.355 1.263-8.073 4.12-10.412 8-5.867 9.319-2.183 17.998 6.367 15.059 6.889-2.38 13.857-12.18 11.774-19.24zm24.589-6.44c-1.462-4.3-5.246-4-7.369-3.46-4.278 1.421-7.907 4.322-10.232 8.18-5.887 9.32-2.543 17.699 5.767 14.459 6.688-2.62 13.636-12.38 11.834-19.179zm-24.79 46.857c6.308 3.78 19.123-9.18 18.022-18.259-.44-3.72-3.304-5.36-7.309-4.22-10.873 3.7-16.7 18.92-10.713 22.48zm48.498-54.116c-1.261-4.12-4.885-3.68-6.928-3.06-4.181 1.597-7.706 4.547-10.012 8.38-5.607 8.819-3.324 16.658 4.105 14.198 7.429-2.46 14.317-13.139 12.835-19.518zm58.47 7.4c5.067.64 18.223-17.86 15.64-22-.821-1.32-2.944-.3-4.145.44-9.792 6.54-15.58 21.02-11.574 21.56h.08zm-182.86 63.995c6.409 5.7 19.424-4.18 19.624-14.879.268-2.284-.612-4.553-2.351-6.062-1.739-1.508-4.111-2.061-6.339-1.477-11.274 2.58-16.9 17.099-10.933 22.398v.02zm40.05-33.158c6.607-2.74 12.814-11.999 10.672-18.839-1.158-3.278-4.65-5.11-8.01-4.2-4.422 1.118-8.222 3.936-10.572 7.84-6.208 9.84-1.362 19.079 7.95 15.18l-.04.02zm-14.258 27.999c6.107 5.34 18.923-4.74 19.323-15.2.2-5.16-3.284-8.159-8.27-7.12-10.973 2.9-16.74 17.3-11.013 22.32h-.04zm138.166-47.497c5.507 1.14 18.222-16 16.02-21.46-.601-1.52-2.424-1.68-4.847-.4-9.731 5.68-16.38 20.78-11.213 21.86h.04zm-20.725 10.119c5.146 2.68 17.882-12.16 17.04-19.859-.32-2.7-2.482-3.48-5.666-2-9.652 4.82-16.14 19.419-11.414 21.859h.04zm46.376-55.997c-.54-3.52-3.624-2.58-5.407-1.72-3.82 2.16-7.024 5.258-9.31 9-1.643 2-5.888 10.94-2.183 12.8 4.865 2.539 17.5-12.38 16.86-20.04l.04-.04zm-90.289 73.696c5.867 3.38 18.483-9.76 17.742-18.52-.28-3.579-2.964-5.059-6.809-3.779-10.512 4.1-16.52 19.099-10.933 22.299zm109.672-84.615c-.26-3.3-3.124-2.2-4.806-1.26-3.66 2.371-6.745 5.528-9.03 9.24-1.622 2-6.008 10.839-2.724 12.359 4.366 2 16.68-13.2 16.56-20.319v-.02zm-61.814 29.998c-1.041-4-4.506-3.34-6.468-2.64-4.087 1.758-7.518 4.752-9.812 8.56-5.506 8.64-3.584 16.259 3.424 13.579 6.408-2.48 14.117-13 12.856-19.539v.04zm-25.39 46.277c5.706 3.14 18.682-11.499 17.34-19.598-.46-2.84-2.843-3.8-6.187-2.5-10.092 4.44-16.24 19.218-11.154 22.058v.04zm47.176-55.056v-.24c-.82-3.74-4.005-2.98-6.007-2.2-3.967 1.958-7.294 5.003-9.592 8.78-1.662 2-5.767 11.019-1.662 13.239 5.527 2.92 18.262-11.54 17.261-19.62v.04z" transform="translate(815 430)"/>
                </g>
            </g>
        </g>
    </g>
</svg>
