<svg xmlns="http://www.w3.org/2000/svg" width="31" height="31" viewBox="0 0 31 31">
    <defs>
        <filter id="wxm95i102a">
            <feColorMatrix in="SourceGraphic" values="0 0 0 0 0.900674 0 0 0 0 0.900674 0 0 0 0 0.900674 0 0 0 1.000000 0"/>
        </filter>
    </defs>
    <g fill="none" fill-rule="evenodd">
        <g>
            <g>
                <g>
                    <g filter="url(#wxm95i102a)" transform="translate(-1815 -3404) translate(0 2937) translate(1815 408)">
                        <g>
                            <path fill="#000" fill-rule="nonzero" d="M26.257 4.071C23.352 1.446 19.497 0 15.4 0 11.303 0 7.448 1.446 4.543 4.071 1.613 6.72 0 10.248 0 14.006c0 2.815.908 5.515 2.63 7.831L1.305 30.1l8.37-3.088c1.82.664 3.744 1 5.724 1 4.097 0 7.952-1.446 10.857-4.071 2.93-2.648 4.543-6.177 4.543-9.935 0-3.758-1.613-7.286-4.543-9.935zM16.75 18.03l-3.405-2.66-8.142 3.218 9.317-9.255 3.445 2.748 7.454-2.886-8.67 8.835z" transform="translate(0 59)"/>
                        </g>
                    </g>
                </g>
            </g>
        </g>
    </g>
</svg>
