<svg xmlns="http://www.w3.org/2000/svg" width="85" height="80" viewBox="0 0 85 80">
    <g fill="none" fill-rule="evenodd">
        <g stroke-width="3">
            <g>
                <g>
                    <path fill-rule="nonzero" stroke="#0090CF" d="M56.929 17.246c-.081-1.763-.081-3.445-.081-5.128 0-1.362-1.053-2.404-2.43-2.404C44.294 9.714 36.6 6.83 30.202.661c-.972-.881-2.43-.881-3.401 0-6.399 6.17-14.093 9.053-24.216 9.053-1.377 0-2.43 1.042-2.43 2.404 0 1.683 0 3.365-.08 5.128-.325 16.825-.81 39.9 27.616 49.594l.81.16.81-.16C57.657 57.145 57.252 34.15 56.93 17.246z" transform="translate(-735 -477) translate(735 477) translate(14 7)"/>
                    <path fill-rule="nonzero" stroke="#FFBE2E" stroke-linecap="round" stroke-linejoin="round" d="M27.918 57.888l.583.112.582-.112c20.39-6.801 20.099-22.931 19.866-34.79-.059-1.237-.059-2.417-.059-3.597 0-.956-.757-1.686-1.747-1.686m-17.419-6.351c-.699-.619-1.747-.619-2.446 0-4.603 4.327-10.137 6.35-17.419 6.35-.99 0-1.747.731-1.747 1.687 0 1.18 0 2.36-.059 3.597-.077 3.926-.168 8.338.5 12.729" transform="translate(-735 -477) translate(735 477) translate(14 7)"/>
                    <path stroke="#FFBE2E" stroke-linecap="round" stroke-linejoin="round" d="M22.869 34.923L27.021 39.124 36.869 27.124" transform="translate(-735 -477) translate(735 477) translate(14 7)"/>
                </g>
            </g>
        </g>
    </g>
</svg>
