<svg xmlns="http://www.w3.org/2000/svg" width="21" height="21" viewBox="0 0 21 21">
    <defs>
        <filter id="dvk8052hwa">
            <feColorMatrix in="SourceGraphic" values="0 0 0 0 0.250000 0 0 0 0 0.250000 0 0 0 0 0.250000 0 0 0 1.000000 0"/>
        </filter>
    </defs>
    <g fill="none" fill-rule="evenodd">
        <g>
            <g filter="url(#dvk8052hwa)" transform="translate(-1161 -985)">
                <g>
                    <path fill="#000" fill-rule="nonzero" d="M17.645 2.736C15.693.972 13.102 0 10.349 0S5.005.972 3.053 2.736C1.084 4.516 0 6.886 0 9.412c0 1.892.61 3.706 1.767 5.263l-.89 5.552 5.625-2.075c1.224.446 2.516.672 3.847.672 2.753 0 5.344-.971 7.296-2.736 1.968-1.78 3.053-4.15 3.053-6.676s-1.085-4.896-3.053-6.676zm-6.39 9.38l-2.287-1.788-5.472 2.163 6.261-6.22 2.316 1.847 5.008-1.94-5.825 5.937z" transform="translate(1161 985)"/>
                </g>
            </g>
        </g>
    </g>
</svg>
