<svg xmlns="http://www.w3.org/2000/svg" width="40" height="49" viewBox="0 0 40 49">
    <defs>
        <filter id="riryzkt1la">
            <feColorMatrix in="SourceGraphic" values="0 0 0 0 0.699134 0 0 0 0 0.699134 0 0 0 0 0.699134 0 0 0 1.000000 0"/>
        </filter>
    </defs>
    <g fill="none" fill-rule="evenodd">
        <g>
            <g filter="url(#riryzkt1la)" transform="translate(-760 -1338)">
                <g fill="#000" fill-rule="nonzero">
                    <path d="M10 31.422C10 30.532 9.527 30 8.692 30c-.34 0-.571.044-.692.086v2.858c.143.042.319.056.56.056.89 0 1.44-.587 1.44-1.578zM15.982 30c-.484 0-.797.04-.982.08v5.88c.185.04.484.04.755.04 1.964.013 3.245-1 3.245-3.147.014-1.866-1.154-2.853-3.018-2.853z" transform="translate(760 1338)"/>
                    <path d="M27.58 0H7.847c-2.883 0-5.23 2.342-5.23 5.215V24.5h-.51C.944 24.5 0 25.44 0 26.602v12.744c0 1.162.944 2.102 2.107 2.102h.51v2.337C2.618 46.66 4.965 49 7.848 49h26.925C37.653 49 40 46.661 40 43.785V12.343L27.58 0zM5.528 28.902c.617-.105 1.486-.183 2.708-.183 1.236 0 2.117.235 2.71.708.564.445.946 1.18.946 2.045s-.29 1.6-.815 2.099c-.684.642-1.696.93-2.88.93-.263 0-.5-.013-.684-.038v3.16H5.528v-8.721zm29.244 16.904H7.847c-1.116 0-2.025-.906-2.025-2.021v-2.337h25.1c1.163 0 2.107-.94 2.107-2.102V26.602c0-1.162-.944-2.102-2.107-2.102h-25.1V5.215c0-1.111.909-2.018 2.025-2.018l18.535-.02v6.834c0 1.995 1.624 3.616 3.627 3.616l6.711-.019.076 30.177c0 1.115-.908 2.021-2.024 2.021zm-21.6-8.223v-8.681c.736-.117 1.696-.183 2.709-.183 1.683 0 2.774.301 3.63.943.92.683 1.498 1.77 1.498 3.332 0 1.691-.618 2.86-1.473 3.58-.933.773-2.354 1.14-4.09 1.14-1.038 0-1.775-.065-2.274-.131zm14.35-5.14v1.626H24.34v3.554H22.33v-8.838h5.417v1.638H24.34v2.02h3.183z" transform="translate(760 1338)"/>
                </g>
            </g>
        </g>
    </g>
</svg>
