<svg xmlns="http://www.w3.org/2000/svg" width="31" height="26" viewBox="0 0 31 26">
    <defs>
        <filter id="59k44qw55a">
            <feColorMatrix in="SourceGraphic" values="0 0 0 0 0.900674 0 0 0 0 0.900674 0 0 0 0 0.900674 0 0 0 1.000000 0"/>
        </filter>
    </defs>
    <g fill="none" fill-rule="evenodd">
        <g>
            <g>
                <g>
                    <g filter="url(#59k44qw55a)" transform="translate(-1815 -3459) translate(0 2937) translate(1815 408)">
                        <g>
                            <path fill="#000" fill-rule="nonzero" d="M12.086 17.07l-.51 7.231c.73 0 1.045-.316 1.423-.695l3.418-3.296 7.082 5.233c1.298.73 2.213.346 2.564-1.206L30.71 2.36l.001-.002c.412-1.937-.694-2.694-1.96-2.22L1.43 10.694c-1.865.73-1.837 1.78-.317 2.255l6.985 2.192L24.324 4.896c.763-.51 1.458-.228.887.282L12.086 17.07z" transform="translate(0 114)"/>
                        </g>
                    </g>
                </g>
            </g>
        </g>
    </g>
</svg>
