<svg xmlns="http://www.w3.org/2000/svg" width="24" height="24" viewBox="0 0 24 24">
    <g fill="none" fill-rule="evenodd">
        <g fill="#8C67A9" fill-rule="nonzero">
            <g>
                <path d="M17.621 0H5.88C2.65 0 0 2.65 0 5.899V17.64c0 3.23 2.65 5.88 5.88 5.88h11.741c3.248 0 5.899-2.65 5.899-5.899V5.9C23.52 2.65 20.87 0 17.621 0zm-6.496 4.835c.038-.579.579-.374.859-.411 3.51.112 6.533 3.267 6.496 6.664 0 .336.112.821-.392.821-.485 0-.355-.504-.41-.84-.467-3.602-2.147-5.301-5.806-5.861-.299-.037-.765.019-.747-.373zm5.246 6.402c-.56.075-.448-.41-.504-.728-.374-2.202-1.158-3.005-3.416-3.49-.336-.075-.859-.019-.766-.523.075-.485.542-.317.896-.28 2.259.261 4.107 2.184 4.088 4.293-.037.224.112.654-.298.728zm-1.4-1.157c0 .299-.038.579-.374.616-.242.037-.392-.168-.429-.41-.093-.897-.579-1.438-1.512-1.587-.28-.038-.541-.131-.41-.504.093-.243.317-.28.56-.28 1.007-.019 2.165 1.157 2.165 2.165zm3.546 6.888c-.392 1.064-1.717 2.147-2.856 2.128-.168-.037-.485-.093-.765-.205C9.893 16.78 6.253 13.309 4.2 8.344c-.69-1.661.037-3.08 1.773-3.64.318-.112.616-.112.934 0 .746.261 2.632 2.819 2.669 3.565.037.579-.373.896-.765 1.158-.766.504-.766 1.138-.43 1.866.728 1.606 1.979 2.726 3.603 3.435.579.261 1.157.243 1.55-.355.709-1.064 1.586-1.008 2.538-.354.485.336.97.653 1.419 1.008.616.504 1.4.914 1.026 1.941z" transform="translate(-2342 -563) translate(2342 563)"/>
            </g>
        </g>
    </g>
</svg>
