<svg xmlns="http://www.w3.org/2000/svg" width="32" height="38" viewBox="0 0 32 38">
    <defs>
        <filter id="9mxz6tac1a">
            <feColorMatrix in="SourceGraphic" values="0 0 0 0 0.900674 0 0 0 0 0.900674 0 0 0 0 0.900674 0 0 0 1.000000 0"/>
        </filter>
    </defs>
    <g fill="none" fill-rule="evenodd">
        <g>
            <g>
                <g>
                    <g>
                        <g fill-rule="nonzero" filter="url(#9mxz6tac1a)" transform="translate(-1814 -3509) translate(0 2937) translate(1815 408) translate(0 165)">
                            <path stroke="#000" stroke-linejoin="round" stroke-width="1.456" d="M22.635 0H7.553C3.405 0 0 3.405 0 7.577v15.082c0 4.148 3.405 7.553 7.553 7.553.072 3.512.072 5.269 0 5.269 2.031-2.321 4.185-5.269 5.026-5.269h10.056c4.172 0 7.577-3.405 7.577-7.577V7.577C30.212 3.405 26.807 0 22.635 0z"/>
                            <path fill="#000" d="M14.29 6.21c.049-.743.744-.48 1.104-.527 4.508.144 8.392 4.196 8.344 8.56 0 .431.144 1.055-.504 1.055-.623 0-.455-.648-.527-1.08-.6-4.627-2.757-6.809-7.457-7.528-.384-.048-.983.024-.96-.48z"/>
                            <path fill="#000" d="M21.029 14.435c-.72.096-.576-.528-.648-.936-.48-2.829-1.487-3.86-4.388-4.483-.431-.096-1.103-.024-.983-.672.096-.623.695-.407 1.151-.36 2.901.336 5.275 2.806 5.251 5.515-.048.288.144.84-.383.936z"/>
                            <path fill="#000" d="M19.23 12.948c0 .384-.048.743-.48.791-.311.048-.503-.216-.55-.527-.12-1.151-.744-1.847-1.943-2.038-.36-.048-.695-.168-.528-.648.12-.311.408-.36.72-.36 1.295-.023 2.781 1.487 2.781 2.782zM23.786 21.796c-.504 1.367-2.206 2.757-3.669 2.733-.215-.048-.623-.12-.983-.263-6.426-2.71-11.101-7.17-13.739-13.548-.887-2.134.048-3.956 2.278-4.676.408-.143.791-.143 1.199 0 .959.336 3.38 3.621 3.429 4.58.048.743-.48 1.151-.983 1.487-.984.647-.984 1.462-.552 2.398.935 2.062 2.542 3.5 4.628 4.411.743.336 1.486.312 1.99-.455.911-1.367 2.038-1.295 3.26-.456.624.432 1.248.84 1.823 1.295.791.648 1.799 1.175 1.319 2.494z"/>
                        </g>
                    </g>
                </g>
            </g>
        </g>
    </g>
</svg>
