<svg xmlns="http://www.w3.org/2000/svg" width="31" height="21" viewBox="0 0 31 21">
    <defs>
        <filter id="fooxaa7lga">
            <feColorMatrix in="SourceGraphic" values="0 0 0 0 0.250000 0 0 0 0 0.250000 0 0 0 0 0.250000 0 0 0 1.000000 0"/>
        </filter>
    </defs>
    <g fill="none" fill-rule="evenodd">
        <g>
            <g filter="url(#fooxaa7lga)" transform="translate(-1465 -985)">
                <g>
                    <path fill="#000" fill-rule="nonzero" d="M29.617 3.286c-.349-1.285-1.37-2.298-2.665-2.644C24.585 0 15.12 0 15.12 0S5.654 0 3.288.618C2.018.963.97 2 .623 3.286 0 5.633 0 10.5 0 10.5s0 4.892.623 7.214c.349 1.285 1.37 2.298 2.665 2.644C5.68 21 15.12 21 15.12 21s9.465 0 11.832-.618c1.295-.346 2.316-1.359 2.665-2.643.623-2.347.623-7.214.623-7.214s.025-4.892-.623-7.239zm-17.511 11.71V6.004l7.871 4.496-7.871 4.496z" transform="translate(1465 985)"/>
                </g>
            </g>
        </g>
    </g>
</svg>
