<?xml version="1.0" encoding="UTF-8"?>
<svg width="35px" height="24px" viewBox="0 0 35 24" version="1.1" xmlns="http://www.w3.org/2000/svg" xmlns:xlink="http://www.w3.org/1999/xlink">
    <title>Shape</title>
    <g id="Page-1" stroke="none" stroke-width="1" fill="none" fill-rule="evenodd">
        <g id="NEWS2" transform="translate(-1814.000000, -1739.000000)" fill="#E6E6E6" fill-rule="nonzero">
            <path d="M1848.27887,1742.75543 C1847.87555,1741.28694 1846.69336,1740.12935 1845.19415,1739.73393 C1842.45528,1739 1831.49961,1739 1831.49961,1739 C1831.49961,1739 1820.54435,1739 1817.80549,1739.7061 C1816.33512,1740.1011 1815.12409,1741.28715 1814.72077,1742.75543 C1814,1745.43758 1814,1751 1814,1751 C1814,1751 1814,1756.59046 1814.72077,1759.24457 C1815.12451,1760.71285 1816.30628,1761.87044 1817.8057,1762.26586 C1820.57319,1763 1831.50003,1763 1831.50003,1763 C1831.50003,1763 1842.45528,1763 1845.19415,1762.2939 C1846.69357,1761.89869 1847.87555,1760.7411 1848.2793,1759.27282 C1849,1756.59046 1849,1751.02824 1849,1751.02824 C1849,1751.02824 1849.02869,1745.43758 1848.27887,1742.75543 L1848.27887,1742.75543 Z M1828,1756 L1828,1746 L1837,1751 L1828,1756 Z" id="Shape"></path>
        </g>
    </g>
</svg>